<svg width="26" height="26" viewBox="0 0 26 26" fill="none" xmlns="http://www.w3.org/2000/svg">
<g clip-path="url(#clip0_101_1190)">
<path d="M12.8777 8.26733C12.6094 8.26733 12.3916 8.48513 12.3916 8.75348C12.3916 9.02183 12.6094 9.23962 12.8777 9.23962C13.1461 9.23962 13.3639 9.02183 13.3639 8.75348C13.3639 8.48513 13.1461 8.26733 12.8777 8.26733Z" fill="black"/>
<path d="M0.907503 25.3959H24.8485C25.1172 25.3959 25.3351 25.178 25.3351 24.9093V22.9628C25.3351 22.6941 25.1172 22.4762 24.8485 22.4762H24.3619V21.0164C24.3619 20.7477 24.144 20.5298 23.8753 20.5298H23.3887V19.07C23.3887 18.8012 23.1708 18.5834 22.9021 18.5834H22.4154V13.1334H22.9021C23.1708 13.1334 23.3887 12.9156 23.3887 12.6468V11.187H24.8485C25.1172 11.187 25.3351 10.9691 25.3351 10.7004V8.75397C25.3351 8.75169 25.3348 8.74955 25.3347 8.74726C25.3324 8.58157 25.248 8.43515 25.1168 8.34819C25.1158 8.34751 25.1148 8.34674 25.1138 8.34605L13.1433 0.560373C12.982 0.455461 12.774 0.455461 12.6127 0.560373L0.642206 8.34605C0.510093 8.43184 0.420898 8.58498 0.420898 8.75397V10.7004C0.420898 10.9691 0.6388 11.187 0.907503 11.187H2.36732V12.6468C2.36732 12.9156 2.58522 13.1334 2.85392 13.1334H3.34053V18.5834H2.85392C2.58522 18.5834 2.36732 18.8012 2.36732 19.07V20.5298H1.88071C1.61201 20.5298 1.39411 20.7477 1.39411 21.0164V22.4762H0.907503C0.6388 22.4762 0.420898 22.6941 0.420898 22.9628V24.9093C0.420898 25.178 0.6388 25.3959 0.907503 25.3959ZM17.5494 22.4762V21.503H23.3887V22.4762H17.5494ZM9.17979 22.4762V21.503H16.5762V22.4762H9.17979ZM7.71997 18.5834H7.23337V13.1334H7.71997C7.98868 13.1334 8.20658 12.9156 8.20658 12.6468V11.187H17.5494V12.6468C17.5494 12.9156 17.7673 13.1334 18.036 13.1334H18.5226V18.5834H18.036C17.7673 18.5834 17.5494 18.8012 17.5494 19.07V20.5298C17.209 20.5298 16.9166 20.5298 16.5762 20.5298V12.6468C16.5762 12.3781 16.3583 12.1602 16.0896 12.1602H9.66639C9.39769 12.1602 9.17979 12.3781 9.17979 12.6468V20.5298C8.83941 20.5298 8.54696 20.5298 8.20658 20.5298V19.07C8.20658 18.8012 7.98868 18.5834 7.71997 18.5834ZM13.3646 20.5298V13.1334H15.603V20.5298H13.3646ZM10.153 20.5298V13.1334H12.3914V20.5298H10.153ZM18.5226 20.5298V19.5566H22.4154V20.5298H18.5226ZM21.4422 18.5834H19.4958V13.1334H21.4422V18.5834ZM22.4154 12.1602H18.5226V11.187H22.4154V12.1602ZM1.39411 9.24058H10.9316C11.2003 9.24058 11.4182 9.02273 11.4182 8.75397C11.4182 8.48522 11.2003 8.26737 10.9316 8.26737H2.54814L12.878 1.54877L23.2078 8.26737H14.8244C14.5557 8.26737 14.3378 8.48522 14.3378 8.75397C14.3378 9.02273 14.5557 9.24058 14.8244 9.24058H24.3619V10.2138H1.39411V9.24058ZM7.23337 11.187V12.1602H3.34053V11.187H7.23337ZM6.26016 13.1334V18.5834H4.31374V13.1334H6.26016ZM3.34053 19.5566C4.53534 19.5566 6.03754 19.5566 7.23337 19.5566V20.5298H3.34053V19.5566ZM2.36732 21.503H8.20658V22.4762H2.36732V21.503ZM1.39411 23.4494H24.3619V24.4227H1.39411V23.4494Z" fill="black"/>
<path d="M12.8781 7.29415C13.9513 7.29415 14.8245 6.42098 14.8245 5.34773C14.8245 5.31347 14.8237 5.27984 14.8218 5.24622C14.7686 4.2115 13.9152 3.40131 12.8781 3.40131C11.8048 3.40131 10.9316 4.27447 10.9316 5.34773C10.9316 6.42098 11.8048 7.29415 12.8781 7.29415ZM12.8781 4.37452C13.3969 4.37452 13.8239 4.77986 13.85 5.29727C13.8501 5.29873 13.8501 5.30014 13.8502 5.3016C13.8511 5.31688 13.8513 5.33215 13.8513 5.34773C13.8513 5.88435 13.4147 6.32094 12.8781 6.32094C12.3414 6.32094 11.9049 5.88435 11.9049 5.34773C11.9049 4.8111 12.3414 4.37452 12.8781 4.37452Z" fill="black"/>
</g>
<defs>
<clipPath id="clip0_101_1190">
<rect width="24.9142" height="24.9142" fill="white" transform="translate(0.420898 0.481689)"/>
</clipPath>
</defs>
</svg>
