<svg width="28" height="28" viewBox="0 0 28 28" fill="none" xmlns="http://www.w3.org/2000/svg">
<g clip-path="url(#clip0_101_1166)">
<path d="M5.714 7.68681C6.88314 7.8506 7.95482 8.3348 8.81298 9.08707C10.2697 10.3639 12.1437 11.1125 14.0898 11.1949C14.2093 11.1999 14.3285 11.2025 14.4478 11.2024C16.2982 11.2024 18.1149 10.5963 19.5987 9.47722C20.2002 9.02362 20.7336 8.49713 21.1925 7.90944C21.7143 8.37918 22.1908 8.89954 22.6105 9.46171C22.7134 9.59951 22.8711 9.67229 23.0307 9.67229C23.1397 9.67229 23.2497 9.63839 23.3438 9.56818C23.5757 9.39506 23.6234 9.06674 23.4502 8.83483C22.9006 8.09854 22.2619 7.42776 21.5559 6.83871C21.2687 5.98888 20.8478 5.18788 20.3028 4.45579C19.1845 2.95346 17.641 1.88434 15.8391 1.36399C14.0961 0.860711 12.2017 0.925212 10.5048 1.54575C10.233 1.6451 10.0933 1.94601 10.1927 2.2178C10.292 2.48953 10.5929 2.62933 10.8647 2.52993C12.3542 1.98521 14.0175 1.92872 15.5484 2.3708C17.1284 2.82707 18.4818 3.76441 19.4622 5.08151C19.6 5.26663 19.7276 5.45725 19.8471 5.65181C19.6981 5.56682 19.5479 5.48413 19.3954 5.40591C17.8707 4.62414 16.233 4.19705 14.5211 4.13171L13.329 3.08073C13.112 2.88937 12.7809 2.91017 12.5895 3.12726C12.3981 3.34434 12.419 3.67544 12.636 3.86679L12.9809 4.1708C12.185 4.24342 11.4007 4.39658 10.6384 4.62891C10.3616 4.71327 10.2056 5.00606 10.29 5.28288C10.3743 5.55969 10.6674 5.71583 10.9439 5.63132C11.9489 5.325 12.9966 5.1697 14.0579 5.1697C14.9794 5.1697 15.8783 5.28466 16.7481 5.5108L15.4883 6.54397C15.2645 6.72747 15.2319 7.05762 15.4154 7.28141C15.519 7.40774 15.6693 7.47313 15.8208 7.47313C15.9377 7.47313 16.0554 7.4342 16.1528 7.35429L17.932 5.89519C18.2656 6.02582 18.5944 6.17284 18.9172 6.33842C19.4281 6.60035 19.9176 6.90572 20.3808 7.24772C19.9751 7.77038 19.5016 8.23776 18.9676 8.64059C17.5816 9.68592 15.8649 10.2212 14.1341 10.148C12.4258 10.0756 10.7814 9.41901 9.50368 8.29907C8.64777 7.54884 7.61444 7.02503 6.48628 6.76493C6.71688 6.19076 7.01623 5.64971 7.37991 5.15068C7.55031 4.91683 7.49891 4.58903 7.26506 4.41864C7.03121 4.24829 6.70336 4.29964 6.53297 4.53354C5.98589 5.2844 5.56655 6.11804 5.28665 7.01135C5.24064 7.15828 5.26155 7.31798 5.34386 7.44809C5.42618 7.57808 5.56152 7.66543 5.714 7.68681Z" fill="#DDA046"/>
<path d="M10.7262 22.3889C11.1036 20.4889 10.8149 18.4917 9.91318 16.765C8.99901 15.0146 7.49249 13.6252 5.67121 12.8531C4.97768 12.559 4.25523 12.3591 3.5168 12.2555C3.66267 11.5692 3.87499 10.8967 4.15185 10.2525C4.26613 9.98668 4.14321 9.67853 3.8774 9.56425C3.61127 9.44992 3.30333 9.5729 3.18905 9.83876C2.82626 10.6829 2.56469 11.5715 2.40755 12.4774C1.8152 13.1509 1.33194 13.9161 0.970401 14.7541C0.0680172 16.8456 0.0385176 19.1677 0.887299 21.2927C1.74048 23.4289 3.37543 25.1026 5.49102 26.0058C6.55421 26.4597 7.68023 26.689 8.8173 26.689C9.44161 26.689 10.0694 26.6198 10.6916 26.4807C10.8418 26.4471 10.9698 26.3492 11.0412 26.2128C11.1128 26.0765 11.1208 25.9156 11.063 25.7729C10.6204 24.6783 10.5039 23.5082 10.7262 22.3889ZM5.90249 25.0419C4.04512 24.249 2.60959 22.7794 1.86052 20.9039C1.11586 19.0395 1.14148 17.0029 1.93262 15.1691C2.02406 14.9572 2.12529 14.7514 2.23406 14.5506C2.23495 14.7221 2.23841 14.8936 2.24695 15.0647C2.33226 16.776 2.78125 18.408 3.58067 19.9231L3.26655 21.481C3.20933 21.7647 3.39293 22.041 3.67661 22.0982C3.71156 22.1052 3.7464 22.1086 3.78072 22.1086C4.025 22.1086 4.24365 21.9368 4.2938 21.6881L4.38465 21.2375C4.84549 21.8904 5.3703 22.4931 5.95259 23.037C6.05361 23.1314 6.18203 23.1781 6.31014 23.1781C6.45025 23.1781 6.59 23.1222 6.69317 23.0118C6.89076 22.8003 6.87944 22.4687 6.66796 22.2712C5.90024 21.554 5.24187 20.7243 4.71119 19.8052C4.25041 19.0072 3.90056 18.1712 3.66152 17.3049L5.18617 17.8794C5.24701 17.9023 5.30946 17.9132 5.37077 17.9132C5.58261 17.9132 5.78209 17.7837 5.86115 17.5738C5.96317 17.303 5.82641 17.0007 5.55557 16.8987L3.40236 16.0874C3.34866 15.7332 3.31161 15.3749 3.29353 15.0125C3.26498 14.4391 3.28463 13.8625 3.34923 13.2905C4.00472 13.3804 4.64627 13.5567 5.2621 13.8178C6.86032 14.4954 8.18219 15.7144 8.98423 17.2501C9.77575 18.7657 10.0293 20.5181 9.69825 22.1846C9.47651 23.3011 9.53949 24.4578 9.87839 25.5649C8.52738 25.7582 7.16411 25.5805 5.90249 25.0419Z" fill="#DDA046"/>
<path d="M27.0391 16.8062C26.8245 15.0283 26.0676 13.3888 24.8501 12.0648C24.7459 11.9514 24.596 11.8896 24.4433 11.896C24.2894 11.9021 24.1461 11.9757 24.0514 12.0971C23.325 13.0277 22.3698 13.7136 21.2892 14.0807C19.4551 14.7038 17.8698 15.9525 16.8254 17.5967C15.7665 19.2637 15.3166 21.2631 15.5585 23.2264C15.6506 23.9741 15.8387 24.6997 16.1182 25.391C15.4509 25.6078 14.7624 25.7602 14.066 25.8425C13.7787 25.8764 13.5732 26.1369 13.6072 26.4243C13.6387 26.6908 13.865 26.8868 14.1269 26.8868C14.1474 26.8868 14.1682 26.8856 14.1891 26.8831C15.1019 26.7752 16.0024 26.5574 16.8658 26.2403C17.4158 26.3505 17.9752 26.4064 18.5391 26.4064C18.8766 26.4064 19.2157 26.3866 19.5552 26.3469C21.8177 26.0827 23.8434 24.9472 25.2593 23.1496C26.6827 21.3426 27.3148 19.0898 27.0391 16.8062ZM24.4362 22.5011C23.1939 24.0782 21.4173 25.0743 19.4336 25.3061C19.2044 25.3329 18.9755 25.3481 18.7472 25.3543C18.8953 25.2678 19.042 25.1791 19.186 25.0861C20.6254 24.1566 21.8142 22.9518 22.7267 21.5019L24.2329 20.995C24.5071 20.9027 24.6547 20.6056 24.5623 20.3313C24.4701 20.0571 24.173 19.9094 23.8986 20.0019L23.4629 20.1485C23.798 19.423 24.0574 18.6672 24.2374 17.8909C24.3028 17.609 24.1272 17.3275 23.8453 17.2621C23.5634 17.1967 23.2819 17.3723 23.2166 17.6542C22.9793 18.6778 22.5899 19.6628 22.0593 20.5818C21.5985 21.3799 21.0495 22.1008 20.4188 22.741L20.154 21.1334C20.1069 20.8479 19.8381 20.6546 19.5517 20.7015C19.2662 20.7486 19.0729 21.0182 19.1199 21.3037L19.494 23.5741C19.2141 23.7977 18.9224 24.0089 18.6175 24.2058C18.1352 24.5172 17.626 24.7885 17.0983 25.0186C16.8485 24.4059 16.6804 23.7622 16.5986 23.0983C16.3863 21.3754 16.781 19.6211 17.71 18.1587C18.6268 16.7154 20.0176 15.6196 21.6264 15.073C22.7041 14.7069 23.6744 14.074 24.4637 13.2269C25.3068 14.3004 25.8344 15.5699 25.9987 16.9317C26.2407 18.9367 25.6858 20.9147 24.4362 22.5011Z" fill="#DDA046"/>
<path d="M8.61185 3.68696C8.90096 3.68696 9.13532 3.45259 9.13532 3.16349C9.13532 2.87438 8.90096 2.64001 8.61185 2.64001C8.32275 2.64001 8.08838 2.87438 8.08838 3.16349C8.08838 3.45259 8.32275 3.68696 8.61185 3.68696Z" fill="#DDA046"/>
</g>
<defs>
<clipPath id="clip0_101_1166">
<rect width="26.8307" height="26.8307" fill="white" transform="translate(0.271484 0.542236)"/>
</clipPath>
</defs>
</svg>
