<svg width="26" height="26" viewBox="0 0 26 26" fill="none" xmlns="http://www.w3.org/2000/svg">
<g clip-path="url(#clip0_101_1179)">
<path d="M16.0832 12.491L16.0831 12.4909C17.66 11.4922 18.6294 9.71878 18.6294 7.84399C18.6294 5.61237 17.283 3.61313 15.273 2.76727C15.0179 2.65958 14.7236 2.77941 14.6161 3.03471C14.5084 3.28996 14.6282 3.58409 14.8835 3.69168C15.069 3.76997 15.2952 3.88809 15.4464 3.98139C15.4564 3.99212 17.6263 5.15964 17.6263 7.84399C17.6263 10.3557 15.5635 12.3582 13.1121 12.3582C10.623 12.3582 8.59788 10.3331 8.59788 7.84399C8.59788 6.14299 9.59592 4.44555 11.3396 3.69218L11.3447 3.69002C11.599 3.58028 11.7162 3.2851 11.6064 3.0307C11.4966 2.7764 11.2016 2.65928 10.9471 2.76892L10.9422 2.77108C9.38521 3.44154 8.2862 4.75883 7.84286 6.20709H7.84276C7.67944 6.72416 7.59473 7.28613 7.59473 7.84399C7.59473 10.8863 10.0698 13.3613 13.1121 13.3613C14.2073 13.3613 15.2382 13.0357 16.0832 12.491Z" fill="#DDA046"/>
<path d="M13.1623 8.30992C13.4389 8.30992 13.6639 8.53493 13.6639 8.8115C13.6639 9.08807 13.4389 9.31308 13.1623 9.31308C12.948 9.31308 12.7167 9.1783 12.511 8.93368C12.3328 8.72157 12.0163 8.69423 11.8043 8.87249C11.5923 9.05075 11.5649 9.3671 11.7431 9.57916C12.0113 9.89817 12.3266 10.1204 12.6607 10.2325V10.8178C12.6607 11.0948 12.8853 11.3194 13.1623 11.3194C13.4393 11.3194 13.6639 11.0948 13.6639 10.8178V10.23C14.2477 10.0229 14.667 9.4654 14.667 8.8115C14.667 7.98179 13.992 7.30677 13.1623 7.30677C12.8857 7.30677 12.6607 7.08176 12.6607 6.80519C12.6607 6.52862 12.8857 6.30361 13.1623 6.30361C13.34 6.30361 13.5276 6.3943 13.7048 6.56579C13.9039 6.75844 14.2213 6.75318 14.414 6.55415C14.6066 6.35507 14.6014 6.03752 14.4024 5.84487C14.1479 5.59854 13.8932 5.45921 13.6639 5.38317V4.79888C13.6639 4.52191 13.4393 4.2973 13.1623 4.2973C12.8853 4.2973 12.6607 4.52191 12.6607 4.79888V5.38673C12.0769 5.59378 11.6576 6.15128 11.6576 6.80519C11.6576 7.6349 12.3326 8.30992 13.1623 8.30992Z" fill="#DDA046"/>
<path d="M25.4507 15.9695H22.4412C19.8786 15.9695 17.4064 16.9884 15.56 18.7529C14.7517 19.5259 14.0983 20.4034 13.6134 21.3509V15.3505C17.529 15.0915 20.6355 11.8239 20.6355 7.84398C20.6355 3.69543 17.2604 0.320312 13.1119 0.320312C8.96332 0.320312 5.58821 3.69543 5.58821 7.84398C5.58821 11.8239 8.69473 15.0915 12.6103 15.3505V21.3519C12.3035 20.754 11.9284 20.1818 11.4871 19.6425C10.1578 18.0179 8.30661 16.8285 6.27492 16.2936C5.45995 16.0786 4.62147 15.9695 3.78253 15.9695H0.773062C0.493382 15.9695 0.271484 16.1993 0.271484 16.4711C0.271484 19.623 1.82758 22.5672 4.43413 24.3468C6.01936 25.429 7.87535 26.0011 9.80146 26.0011C10.5648 26.0011 15.6639 26.0011 16.4223 26.0011C18.9865 26.0011 21.3832 24.9852 23.1611 23.2099C24.961 21.4093 25.9523 19.0161 25.9523 16.4711C25.9523 16.4683 25.9519 16.4655 25.9519 16.4627C25.9475 16.1869 25.7206 15.9695 25.4507 15.9695ZM23.9158 16.9727L20.1182 19.7515L20.5225 17.1866C21.1533 17.045 21.7971 16.9727 22.4412 16.9727H23.9158ZM16.2532 19.478C17.1727 18.5993 18.2692 17.9236 19.4581 17.4965L18.97 20.5915L13.6807 24.4618C13.9226 22.5944 14.8146 20.8537 16.2532 19.478ZM6.59136 7.84398C6.59136 4.24852 9.51641 1.32347 13.1119 1.32347C16.7073 1.32347 19.6324 4.24852 19.6324 7.84398C19.6324 11.4394 16.7073 14.3645 13.1119 14.3645C9.51641 14.3645 6.59136 11.4394 6.59136 7.84398ZM12.5431 24.4619L7.23699 20.5794L6.7621 17.4933C9.90087 18.6079 12.1358 21.3155 12.5431 24.4619ZM5.69996 17.1864L6.09329 19.7425L2.30794 16.9727H3.78253C4.4261 16.9727 5.06947 17.0449 5.69996 17.1864ZM1.33799 17.506C2.08037 18.0492 7.04168 21.6794 8.07342 22.4344L4.80845 23.3836C2.87297 21.9834 1.62414 19.8498 1.33799 17.506ZM5.96971 24.0907L9.09519 23.182L11.577 24.9979H9.80146C8.45748 24.9979 7.15187 24.6867 5.96971 24.0907ZM14.6467 24.9979L17.0862 23.213L20.2394 24.0978C19.0611 24.6892 17.7607 24.9979 16.4223 24.9979H14.6467ZM22.4519 22.5003C22.1294 22.8223 21.7805 23.1192 21.4128 23.3852L18.1155 22.4599C19.0833 21.7517 24.2612 17.9631 24.8871 17.5051C24.6603 19.3908 23.8158 21.136 22.4519 22.5003Z" fill="#DDA046"/>
<path d="M13.1115 3.3288C13.3882 3.3288 13.6126 3.10445 13.6126 2.8277C13.6126 2.55095 13.3882 2.3266 13.1115 2.3266C12.8347 2.3266 12.6104 2.55095 12.6104 2.8277C12.6104 3.10445 12.8347 3.3288 13.1115 3.3288Z" fill="#DDA046"/>
</g>
<defs>
<clipPath id="clip0_101_1179">
<rect width="25.6808" height="25.6808" fill="white" transform="translate(0.271484 0.320312)"/>
</clipPath>
</defs>
</svg>
