<svg width="18" height="19" viewBox="0 0 18 19" fill="none" xmlns="http://www.w3.org/2000/svg">
<path d="M13.5443 0.626751C10.5617 0.0313175 7.46439 0.0313175 4.48177 0.626751C3.16253 0.924467 1.49915 2.59168 1.21236 3.90163C0.69614 6.462 0.69614 9.0819 1.21236 11.6423C1.55651 12.9522 3.21989 14.6194 4.48177 14.9171C4.53913 14.9171 4.59648 14.9767 4.59648 15.0362V18.7875C4.59648 18.9661 4.82592 19.0852 4.94063 18.9065L6.66138 17.0607C6.66138 17.0607 8.03797 15.5721 8.2674 15.3339C8.2674 15.3339 8.32476 15.2744 8.38212 15.2744C10.1029 15.334 11.881 15.1553 13.6017 14.8576C14.9209 14.5599 16.5843 12.8927 16.8711 11.5827C17.3873 9.02236 17.3873 6.40245 16.8711 3.84209C16.527 2.59168 14.8636 0.924467 13.5443 0.626751ZM13.6017 11.8209C13.3149 12.4163 12.9708 12.8927 12.3972 13.1904C12.2251 13.2499 12.053 13.3095 11.881 13.369C11.6515 13.3095 11.4794 13.2499 11.3074 13.1904C9.47192 12.4163 7.75118 11.3445 6.37459 9.79642C5.62893 8.90327 4.99799 7.89104 4.48177 6.81926C4.25234 6.28337 4.02291 5.80702 3.85083 5.27113C3.67876 4.79478 3.96555 4.31844 4.25234 3.96118C4.53913 3.60392 4.88328 3.36574 5.28478 3.18711C5.57157 3.00848 5.85836 3.12757 6.0878 3.36574C6.54666 3.96118 7.00552 4.55661 7.34967 5.21159C7.5791 5.62839 7.52174 6.10474 7.12024 6.40245C7.00552 6.462 6.94816 6.52154 6.83345 6.64063C6.77609 6.70017 6.66137 6.75971 6.60401 6.8788C6.4893 7.05743 6.4893 7.23606 6.54666 7.41469C7.00552 8.78418 7.86589 9.85596 9.18513 10.4514C9.41456 10.5705 9.58663 10.63 9.87343 10.63C10.2749 10.5705 10.447 10.0941 10.7338 9.85596C11.0206 9.61779 11.3647 9.61779 11.7089 9.79642C11.9957 9.97505 12.2825 10.2132 12.6266 10.4514C12.9134 10.6896 13.2002 10.8682 13.487 11.1064C13.6591 11.2255 13.7164 11.5232 13.6017 11.8209ZM11.1927 7.35515C11.0779 7.35515 11.1353 7.35515 11.1927 7.35515C10.9632 7.35515 10.9059 7.23606 10.8485 7.05743C10.8485 6.93834 10.8485 6.75971 10.7912 6.64063C10.7338 6.40245 10.6191 6.16428 10.3896 5.98565C10.2749 5.92611 10.1602 5.86656 10.0455 5.80702C9.87342 5.74748 9.75871 5.74748 9.58663 5.74748C9.41456 5.68793 9.3572 5.56885 9.3572 5.39022C9.3572 5.27113 9.52928 5.15204 9.64399 5.15204C10.5617 5.21159 11.25 5.74747 11.3647 6.8788C11.3647 6.93834 11.3647 7.05743 11.3647 7.11697C11.3647 7.23606 11.3074 7.35515 11.1927 7.35515ZM10.6191 4.73524C10.3323 4.61615 10.0455 4.49707 9.70135 4.43752C9.58663 4.43752 9.41456 4.37798 9.29984 4.37798C9.12777 4.37798 9.01305 4.25889 9.07041 4.08026C9.07041 3.90163 9.18513 3.78255 9.3572 3.84209C9.93078 3.90163 10.447 4.02072 10.9632 4.25889C11.9957 4.79478 12.5693 5.68793 12.7413 6.8788C12.7413 6.93834 12.7413 6.99789 12.7413 7.05743C12.7413 7.17652 12.7413 7.2956 12.7413 7.47423C12.7413 7.53377 12.7413 7.59332 12.7413 7.65286C12.684 7.89104 12.2825 7.95058 12.2251 7.65286C12.2251 7.59332 12.1677 7.47423 12.1677 7.41469C12.1677 6.8788 12.053 6.34291 11.8236 5.86656C11.4795 5.33067 11.0779 4.97341 10.6191 4.73524ZM13.7164 8.30784C13.5443 8.30784 13.4296 8.12921 13.4296 7.95058C13.4296 7.59332 13.3723 7.23606 13.3149 6.8788C13.0855 4.97341 11.5942 3.42529 9.81607 3.12757C9.52928 3.06803 9.24249 3.06803 9.01305 3.00848C8.84098 3.00848 8.61155 3.00848 8.55419 2.77031C8.49683 2.59168 8.6689 2.41305 8.84098 2.41305C8.89834 2.41305 8.9557 2.41305 8.9557 2.41305C9.07041 2.41305 11.3074 2.47259 8.9557 2.41305C11.3647 2.47259 13.3723 4.13981 13.7738 6.64063C13.8311 7.05743 13.8885 7.47423 13.8885 7.95058C14.0032 8.12921 13.8885 8.30784 13.7164 8.30784Z" fill="white"/>
</svg>
