<svg width="47" height="47" viewBox="0 0 47 47" fill="none" xmlns="http://www.w3.org/2000/svg">
<g clip-path="url(#clip0_8_5995)">
<rect x="5.83887" y="2.25598" width="36.3938" height="40.3533" fill="white"/>
<path d="M20.6672 34.7657C20.6672 34.8235 20.6672 34.8957 20.6352 34.9359C20.4186 35.2154 20.1608 35.4484 19.8225 35.5722C19.5286 35.6795 19.2945 35.5485 19.2326 35.2432C19.2079 35.1226 19.2068 34.9957 19.2068 34.8719C19.2058 32.5979 19.1996 27.9354 19.1965 27.8786H17.5186C17.5186 27.9415 17.5165 34.4367 17.5206 35.664C17.5217 35.9961 17.5567 36.3261 17.6949 36.6345C17.8434 36.9686 18.0899 37.18 18.4571 37.2409C18.7262 37.2873 18.9892 37.2574 19.245 37.1697C19.7689 36.9892 20.1794 36.6489 20.5414 36.2405C20.5733 36.2044 20.6074 36.1693 20.6682 36.1044V37.1233H22.3503V32.6649C22.3503 31.12 22.3503 27.8642 22.3503 27.8642L20.6672 27.8683V34.7657Z" fill="url(#paint0_linear_8_5995)"/>
<path d="M28.6193 28.6016C28.2646 27.8457 27.5189 27.6456 26.8723 27.8075C26.4804 27.9065 26.1628 28.1324 25.9018 28.4242C25.8152 28.5222 25.7203 28.712 25.7203 28.712C25.7203 28.712 25.7203 25.9202 25.7203 24.5857H24.0352V37.1213H25.7203V36.4179C25.7203 36.4179 25.84 36.5448 25.8833 36.5912C26.27 37.0109 26.7393 37.2409 27.3178 37.2461C28.0294 37.2533 28.5245 36.9088 28.7493 36.2323C28.8534 35.9177 28.8875 35.5939 28.8885 35.2659C28.8906 33.5137 28.8906 31.7616 28.8875 30.0094C28.8875 29.5246 28.8287 29.0483 28.6193 28.6016ZM27.1528 35.0567C27.1528 35.1505 27.1415 35.2454 27.1219 35.3372C27.0445 35.7044 26.765 35.8694 26.369 35.7879C26.1287 35.7384 25.941 35.6002 25.7801 35.4259C25.7729 35.4177 25.7255 35.3537 25.7255 35.3537V35.2165L25.7214 29.6506C25.7214 29.6506 25.7574 29.5474 25.8369 29.4783C26.0349 29.303 26.2535 29.1927 26.5268 29.2195C26.7599 29.2422 26.9455 29.3494 27.0321 29.565C27.0971 29.7289 27.1487 29.9115 27.1497 30.0868C27.158 31.743 27.1549 33.3993 27.1528 35.0567Z" fill="url(#paint1_linear_8_5995)"/>
<path d="M22.5602 17.6758C22.9531 17.6758 23.2727 17.3562 23.2727 16.9632V11.9355C23.2727 11.5426 22.953 11.223 22.5602 11.223C22.1674 11.223 21.8477 11.5427 21.8477 11.9355V16.9632C21.8476 17.3561 22.1673 17.6758 22.5602 17.6758Z" fill="url(#paint2_linear_8_5995)"/>
<path d="M17.5228 24.5867H11.6855V26.3831H13.6523V37.1222H15.5519V26.379H17.5228V24.5867Z" fill="url(#paint3_linear_8_5995)"/>
<path d="M33.4339 33.8359V35.025C33.4339 35.4406 33.0977 35.7768 32.6831 35.7768C32.2675 35.7768 31.9313 35.4406 31.9313 35.025V32.7118H35.1583C35.1583 32.7118 35.1768 31.0978 35.1634 30.3655C35.1583 30.053 35.1346 29.7364 35.0706 29.4312C34.9035 28.6391 34.4776 28.042 33.6804 27.78C33.4463 27.7027 33.1947 27.6625 32.9482 27.647C32.1283 27.5944 31.4105 27.8285 30.8495 28.4566C30.3575 29.0063 30.1863 29.6684 30.1853 30.3861C30.1822 31.7588 30.176 33.1325 30.1894 34.5052C30.1936 34.8548 30.2327 35.2116 30.3122 35.552C30.4834 36.2832 30.8825 36.8576 31.5869 37.1753C32.1015 37.4083 32.645 37.4197 33.1936 37.3392C34.0785 37.2093 34.6818 36.7349 34.9737 35.8799C35.1933 35.2395 35.1676 33.8359 35.1676 33.8359H33.4339ZM31.9313 29.9789C31.9313 29.5643 32.2675 29.2271 32.6831 29.2271C33.0977 29.2271 33.4339 29.5643 33.4339 29.9789V31.2773H31.9313V29.9789Z" fill="url(#paint4_linear_8_5995)"/>
<path d="M0 0V47H47V0H0ZM26.4773 9.79642H28.1889V16.894C28.1889 16.9881 28.1964 17.0831 28.2129 17.1753C28.2648 17.4678 28.4811 17.6055 28.7627 17.5078C29.106 17.389 29.3681 17.1513 29.5903 16.8712C29.6218 16.8312 29.616 16.7565 29.616 16.6978V9.79642H31.3401L31.3396 19.1034H29.6151L29.6172 18.1035C29.4265 18.2913 29.2637 18.4667 29.0849 18.6243C28.7679 18.9036 28.4088 19.1118 27.9887 19.194C27.3439 19.32 26.7946 19.1163 26.5889 18.4484C26.5204 18.2259 26.4791 17.9862 26.4773 17.7539V9.79642ZM22.5602 9.56344C23.924 9.56344 25.0296 10.669 25.0296 12.0328V16.8654C25.0296 18.2292 23.924 19.3348 22.5602 19.3348C21.1964 19.3348 20.0909 18.2292 20.0909 16.8654V12.0328C20.0907 10.669 21.1963 9.56344 22.5602 9.56344ZM15.9176 6.50447C15.9176 6.50447 16.7019 9.83571 17.0762 11.4137H17.0768C17.4512 9.83571 18.2355 6.50447 18.2355 6.50447H20.198C20.198 6.50447 18.6902 11.505 18.016 13.7351C17.9916 13.8156 17.9806 13.9033 17.9806 13.9878L17.9814 19.1014H16.1718L16.1725 13.9878C16.1725 13.9033 16.1614 13.8157 16.1371 13.7351C15.4628 11.505 13.9551 6.50447 13.9551 6.50447H15.9176ZM37.4963 36.1851C37.4963 38.4725 35.6688 40.3412 33.3824 40.3897C26.7954 40.531 20.2053 40.531 13.6173 40.3897C11.3319 40.3412 9.50445 38.4725 9.50445 36.1851V25.8967C9.50445 23.6103 11.3319 21.7416 13.6173 21.6931C20.2053 21.5518 26.7954 21.5518 33.3824 21.6931C35.6688 21.7416 37.4963 23.6103 37.4963 25.8967V36.1851Z" fill="url(#paint5_linear_8_5995)"/>
</g>
<defs>
<linearGradient id="paint0_linear_8_5995" x1="19.9342" y1="27.8642" x2="19.9342" y2="37.2626" gradientUnits="userSpaceOnUse">
<stop stop-color="#E32828"/>
<stop offset="1" stop-color="#AE0000"/>
</linearGradient>
<linearGradient id="paint1_linear_8_5995" x1="26.4626" y1="24.5857" x2="26.4626" y2="37.2462" gradientUnits="userSpaceOnUse">
<stop stop-color="#E32828"/>
<stop offset="1" stop-color="#AE0000"/>
</linearGradient>
<linearGradient id="paint2_linear_8_5995" x1="22.5602" y1="11.223" x2="22.5602" y2="17.6758" gradientUnits="userSpaceOnUse">
<stop stop-color="#E32828"/>
<stop offset="1" stop-color="#AE0000"/>
</linearGradient>
<linearGradient id="paint3_linear_8_5995" x1="14.6042" y1="24.5867" x2="14.6042" y2="37.1222" gradientUnits="userSpaceOnUse">
<stop stop-color="#E32828"/>
<stop offset="1" stop-color="#AE0000"/>
</linearGradient>
<linearGradient id="paint4_linear_8_5995" x1="32.6748" y1="27.6398" x2="32.6748" y2="37.3844" gradientUnits="userSpaceOnUse">
<stop stop-color="#E32828"/>
<stop offset="1" stop-color="#AE0000"/>
</linearGradient>
<linearGradient id="paint5_linear_8_5995" x1="23.5" y1="0" x2="23.5" y2="47" gradientUnits="userSpaceOnUse">
<stop stop-color="#E32828"/>
<stop offset="1" stop-color="#AE0000"/>
</linearGradient>
<clipPath id="clip0_8_5995">
<rect width="47" height="47" rx="23.5" fill="white"/>
</clipPath>
</defs>
</svg>
