<svg width="37" height="37" viewBox="0 0 37 37" fill="none" xmlns="http://www.w3.org/2000/svg">
<path d="M36.321 0.814586C36.256 0.623873 36.139 0.455068 35.9834 0.327118C35.8277 0.199168 35.6394 0.117137 35.4397 0.0902323C35.1983 0.0612581 29.5193 -0.634121 26.9382 2.35022C24.7772 4.85406 25.644 8.91286 26.0473 10.3471C25.5426 11.1149 24.304 12.8896 22.2903 15.321C23.1643 13.7709 23.8959 11.791 23.4348 9.88349C22.4979 6.02027 17.157 4.37841 16.9156 4.3108C16.7251 4.25303 16.5223 4.24906 16.3297 4.29935C16.1371 4.34963 15.9622 4.4522 15.8242 4.59571C15.6576 4.76956 11.7606 8.94183 12.6854 12.7737C13.6101 16.6055 18.9631 18.2788 19.2045 18.3464C19.3055 18.3769 19.4105 18.3924 19.516 18.3922C19.5514 18.3947 19.5869 18.3947 19.6223 18.3922C18.0383 20.1379 16.0512 22.1903 13.6632 24.4285C14.4938 23.0136 15.1409 21.2703 14.827 19.5415C14.1172 15.63 8.87285 13.6839 8.6483 13.6018C8.45896 13.5353 8.25488 13.5227 8.05878 13.5653C7.86269 13.608 7.68227 13.7042 7.53762 13.8433C7.36137 14.0099 3.22772 17.948 3.93276 21.8281C4.58951 25.4499 9.12879 27.3815 9.96904 27.7171C7.02169 30.2183 3.948 32.5666 0.76009 34.753C0.571007 34.8828 0.428556 35.0699 0.353668 35.2867C0.27878 35.5035 0.275404 35.7386 0.344036 35.9575C0.412668 36.1763 0.549689 36.3674 0.734966 36.5026C0.920243 36.6379 1.14401 36.7101 1.37338 36.7087C1.59169 36.709 1.80486 36.6424 1.98425 36.518C5.27517 34.2577 8.44573 31.827 11.4829 29.2358C11.4925 29.2794 11.5054 29.3222 11.5216 29.3638C11.6037 29.5859 13.5618 34.7964 17.4999 35.4991C17.8019 35.5538 18.1081 35.5813 18.415 35.5812C22.0006 35.5812 25.3809 32.0801 25.5354 31.9207C25.6753 31.7771 25.772 31.5971 25.8147 31.4012C25.8574 31.2053 25.8443 31.0013 25.7768 30.8125C25.6948 30.5904 23.7342 25.3798 19.7961 24.6748C18.4247 24.4333 17.046 24.7786 15.8266 25.3412C17.7583 23.5158 19.405 21.8184 20.7861 20.319C21.3873 21.5263 23.5338 25.3315 26.9406 25.7396C27.1426 25.7635 27.3457 25.7756 27.5491 25.7758C31.253 25.7758 34.6067 21.8764 34.754 21.7025C34.8836 21.55 34.9679 21.3642 34.9973 21.1662C35.0268 20.9682 35.0002 20.7659 34.9206 20.5822C34.8264 20.3673 32.5665 15.2703 28.5946 14.8019C27.2787 14.6449 25.9893 15.0216 24.8497 15.5986C26.3322 13.7467 27.298 12.368 27.7833 11.6485C28.0561 11.6654 28.399 11.6799 28.7902 11.6799C30.7218 11.6799 33.8606 11.3346 35.5942 9.32816C38.2019 6.31243 36.3983 1.03672 36.321 0.814586ZM10.2201 25.4619C8.78593 24.8028 6.4028 23.3372 6.05511 21.4224C5.70743 19.5077 7.43621 17.0763 8.54206 15.8691C9.97387 16.5234 12.3666 17.9866 12.7047 19.911C13.0427 21.8353 11.326 24.2498 10.2201 25.4619ZM19.4074 26.7875C21.339 27.1328 22.8118 29.499 23.4758 30.9211C22.3651 31.9207 20.2742 33.4346 18.4247 33.4346C18.2434 33.4351 18.0624 33.4197 17.8838 33.3888C15.9522 33.0435 14.4793 30.6749 13.8154 29.2551C15.0226 28.1541 17.4371 26.435 19.4074 26.7875ZM19.1804 16.0719C17.7124 15.4996 15.2496 14.1789 14.7812 12.2763C14.3127 10.3736 15.9136 7.86255 16.9542 6.5901C18.4029 7.16234 20.8778 8.48549 21.3366 10.3905C21.7953 12.2956 20.2114 14.7994 19.1804 16.0719ZM28.3266 16.9339C30.2727 17.1753 31.8856 19.4425 32.6292 20.8236C31.4751 21.9923 29.1741 23.8466 27.1917 23.61C25.2481 23.3685 23.6352 21.0989 22.8891 19.7178C24.0456 18.5492 26.3467 16.6948 28.3266 16.9339ZM33.95 7.93015C32.6485 9.42474 29.6932 9.60582 28.061 9.5189C27.6722 7.99776 27.3101 5.23314 28.5849 3.75788C29.8598 2.28261 32.8321 2.0822 34.4739 2.1812C34.8651 3.69027 35.2248 6.45489 33.95 7.93015Z" fill="#DDA046"/>
</svg>
