<svg width="42" height="43" viewBox="0 0 42 43" fill="none" xmlns="http://www.w3.org/2000/svg">
<g clip-path="url(#clip0_8_5861)">
<path d="M4.46313 21.0097C4.46313 30.5132 12.0516 38.2445 21.3788 38.2445C30.706 38.2445 38.2944 30.5132 38.2944 21.0097C38.2944 11.5065 30.706 3.7749 21.3788 3.7749C12.0516 3.7749 4.46313 11.5065 4.46313 21.0097ZM36.6834 21.0097C36.6834 29.6082 29.8177 36.6031 21.3788 36.6031C12.9398 36.6031 6.07415 29.6082 6.07415 21.0097C6.07415 12.4115 12.9398 5.41631 21.3788 5.41631C29.8177 5.41631 36.6834 12.4115 36.6834 21.0097Z" fill="#DDA046"/>
<path d="M37.3102 7.66938C34.3276 3.97556 30.1676 1.40798 25.597 0.4398C25.1625 0.348112 24.7349 0.632473 24.6442 1.07649C24.5536 1.52018 24.8337 1.95458 25.2691 2.04691C34.03 3.90279 40.3887 11.8777 40.3887 21.0097C40.3887 31.6898 31.8611 40.3783 21.3788 40.3783C10.8965 40.3783 2.36883 31.6898 2.36883 21.0097C2.36883 11.6306 8.93276 3.6149 17.9768 1.95041C18.4145 1.86994 18.7052 1.44292 18.6262 0.996982C18.5469 0.551044 18.1281 0.2545 17.6904 0.335288C12.9962 1.19895 8.70716 3.7316 5.61319 7.46645C2.4821 11.2465 0.757812 16.0563 0.757812 21.0097C0.757812 26.6219 2.90279 31.8978 6.79754 35.8664C10.6923 39.8346 15.8708 42.0197 21.3788 42.0197C26.8868 42.0197 32.0653 39.8343 35.96 35.8664C39.8548 31.8978 41.9998 26.6219 41.9998 21.0097C41.9998 16.1521 40.3343 11.4142 37.3102 7.66938Z" fill="#DDA046"/>
<path d="M21.4767 1.64141L21.5333 1.64173H21.5402C21.9817 1.64173 22.3416 1.27883 22.3454 0.828079C22.3492 0.374767 21.9914 0.00416764 21.5468 0.000320588L21.4902 0C21.4877 0 21.4855 0 21.4833 0C21.0415 0 20.6815 0.362906 20.6778 0.813973C20.6743 1.26728 21.0317 1.63756 21.4767 1.64141Z" fill="#DDA046"/>
<path d="M20.5837 7.85147C20.5837 8.06722 20.67 8.27817 20.8197 8.43173C20.9704 8.58433 21.1775 8.67217 21.3892 8.67217C21.602 8.67217 21.809 8.58433 21.9588 8.43173C22.1095 8.27817 22.1957 8.06722 22.1957 7.85147C22.1957 7.63539 22.1095 7.4238 21.9588 7.2712C21.8096 7.1186 21.602 7.03076 21.3892 7.03076C21.1775 7.03076 20.9698 7.11764 20.8197 7.2712C20.67 7.4238 20.5837 7.63475 20.5837 7.85147Z" fill="#DDA046"/>
<path d="M21.3685 33.3475C21.1558 33.3475 20.9478 33.4354 20.799 33.588C20.6483 33.7406 20.563 33.9525 20.563 34.1682C20.563 34.385 20.6483 34.5959 20.799 34.7485C20.9488 34.9017 21.1558 34.9889 21.3685 34.9889C21.5803 34.9889 21.7873 34.9017 21.9377 34.7485C22.0878 34.5959 22.174 34.384 22.174 34.1682C22.174 33.9525 22.0878 33.7415 21.9377 33.588C21.7879 33.4354 21.5803 33.3475 21.3685 33.3475Z" fill="#DDA046"/>
<path d="M34.2933 21.8413C34.5054 21.8413 34.713 21.7541 34.8628 21.6015C35.0135 21.448 35.0988 21.237 35.0988 21.0206C35.0988 20.8045 35.0135 20.593 34.8628 20.4404C34.713 20.2878 34.506 20.2006 34.2933 20.2006C34.0815 20.2006 33.8739 20.2878 33.7241 20.4404C33.574 20.5936 33.4878 20.8045 33.4878 21.0206C33.4878 21.2364 33.574 21.448 33.7241 21.6015C33.8745 21.7541 34.0815 21.8413 34.2933 21.8413Z" fill="#DDA046"/>
<path d="M8.4642 20.1785C8.25118 20.1785 8.04445 20.2657 7.89468 20.4183C7.74396 20.5709 7.65869 20.7825 7.65869 20.9992C7.65869 21.2149 7.74396 21.4268 7.89468 21.5794C8.04445 21.732 8.25149 21.8199 8.4642 21.8199C8.67596 21.8199 8.88363 21.732 9.0334 21.5794C9.18318 21.4268 9.26971 21.2149 9.26971 20.9992C9.26971 20.7825 9.18349 20.5709 9.0334 20.4183C8.88363 20.2653 8.67596 20.1785 8.4642 20.1785Z" fill="#DDA046"/>
<path d="M14.9305 8.78796C14.7187 8.78796 14.5108 8.8758 14.361 9.0284C14.2112 9.181 14.125 9.39291 14.125 9.60867C14.125 9.82442 14.2112 10.0363 14.361 10.1889C14.5108 10.3415 14.7187 10.4294 14.9305 10.4294C15.1423 10.4294 15.3503 10.3415 15.5 10.1889C15.6498 10.0363 15.736 9.82442 15.736 9.60867C15.736 9.39291 15.6498 9.181 15.5 9.0284C15.3503 8.8758 15.1423 8.78796 14.9305 8.78796Z" fill="#DDA046"/>
<path d="M27.827 31.5905C27.6152 31.5905 27.4072 31.6783 27.2575 31.8309C27.1077 31.9835 27.0215 32.1951 27.0215 32.4112C27.0215 32.6269 27.1077 32.8388 27.2575 32.9914C27.4072 33.144 27.6152 33.2319 27.827 33.2319C28.0388 33.2319 28.2467 33.144 28.3965 32.9914C28.5463 32.8388 28.6325 32.6269 28.6325 32.4112C28.6325 32.1951 28.5463 31.9835 28.3965 31.8309C28.2467 31.6783 28.0388 31.5905 27.827 31.5905Z" fill="#DDA046"/>
<path d="M32.5689 15.2609C32.7807 15.2609 32.9884 15.1731 33.1381 15.0202C33.2879 14.8676 33.3744 14.656 33.3744 14.4402C33.3744 14.2241 33.2882 14.0125 33.1381 13.8599C32.9884 13.7073 32.7807 13.6195 32.5689 13.6195C32.3569 13.6195 32.1492 13.707 31.9994 13.8599C31.8496 14.0125 31.7634 14.2241 31.7634 14.4402C31.7634 14.656 31.8493 14.8676 31.9994 15.0202C32.1492 15.1731 32.3569 15.2609 32.5689 15.2609Z" fill="#DDA046"/>
<path d="M10.1886 26.7588C9.9768 26.7588 9.76913 26.8466 9.61936 26.9992C9.46927 27.1518 9.38306 27.3637 9.38306 27.5795C9.38306 27.7952 9.46927 28.0072 9.61936 28.1598C9.76913 28.3124 9.9768 28.4002 10.1886 28.4002C10.4006 28.4002 10.6083 28.3124 10.7581 28.1598C10.9079 28.0072 10.9941 27.7952 10.9941 27.5795C10.9941 27.3637 10.9082 27.1518 10.7581 26.9992C10.6083 26.8466 10.4013 26.7588 10.1886 26.7588Z" fill="#DDA046"/>
<path d="M10.1993 13.6007C9.98723 13.6007 9.77956 13.6882 9.62979 13.8411C9.48001 13.9937 9.3938 14.2047 9.3938 14.4214C9.3938 14.6372 9.4797 14.8481 9.62979 15.0014C9.78051 15.154 9.98723 15.2421 10.1993 15.2421C10.412 15.2421 10.6191 15.1543 10.7685 15.0014C10.9192 14.8481 11.0048 14.6372 11.0048 14.4214C11.0048 14.2047 10.9192 13.9937 10.7685 13.8411C10.6191 13.6885 10.412 13.6007 10.1993 13.6007Z" fill="#DDA046"/>
<path d="M32.5584 28.4191C32.7705 28.4191 32.9782 28.3313 33.128 28.1787C33.2777 28.0261 33.3639 27.8142 33.3639 27.5984C33.3639 27.3827 33.2777 27.1708 33.128 27.0182C32.9782 26.8656 32.7705 26.7777 32.5584 26.7777C32.3457 26.7777 32.1387 26.8656 31.9889 27.0182C31.8385 27.1708 31.7529 27.3827 31.7529 27.5984C31.7529 27.8142 31.8385 28.0261 31.9889 28.1787C32.1381 28.3313 32.3457 28.4191 32.5584 28.4191Z" fill="#DDA046"/>
<path d="M27.8453 10.44C28.0574 10.44 28.265 10.3528 28.4148 10.2002C28.5655 10.047 28.6508 9.83505 28.6508 9.61929C28.6508 9.40353 28.5655 9.19163 28.4148 9.03903C28.265 8.88643 28.0574 8.79858 27.8453 8.79858C27.6335 8.79858 27.4259 8.88643 27.2761 9.03903C27.1263 9.19163 27.0398 9.40353 27.0398 9.61929C27.0398 9.83505 27.126 10.047 27.2761 10.2002C27.4259 10.3531 27.6335 10.44 27.8453 10.44Z" fill="#DDA046"/>
<path d="M14.9122 31.5798C14.6995 31.5798 14.4928 31.6667 14.3427 31.8203C14.1929 31.9729 14.1067 32.1838 14.1067 32.4005C14.1067 32.6163 14.1929 32.8279 14.3427 32.9805C14.4928 33.1334 14.6998 33.2212 14.9122 33.2212C15.1243 33.2212 15.3319 33.1334 15.4817 32.9805C15.6315 32.8272 15.7177 32.6163 15.7177 32.4005C15.7177 32.1845 15.6315 31.9729 15.4817 31.8203C15.3319 31.6667 15.1243 31.5798 14.9122 31.5798Z" fill="#DDA046"/>
<path d="M28.01 13.1031L22.84 18.371C22.4079 18.1216 21.9095 17.9786 21.3787 17.9786C20.8504 17.9786 20.3545 18.1203 19.9241 18.3672L17.4525 15.849C17.1378 15.5287 16.6281 15.5287 16.3131 15.849C15.9988 16.1695 15.9988 16.6892 16.3131 17.0098L18.7847 19.5277C18.5424 19.9663 18.4037 20.4718 18.4037 21.0098C18.4037 22.6813 19.7381 24.0413 21.3787 24.0413C23.0193 24.0413 24.3537 22.6813 24.3537 21.0098C24.3537 20.4744 24.2162 19.9714 23.9762 19.5344L29.1493 14.264C29.4637 13.9434 29.4637 13.4237 29.1493 13.1031C28.8347 12.7828 28.3246 12.7828 28.01 13.1031ZM21.3787 22.3998C20.6264 22.3998 20.0147 21.7763 20.0147 21.0098C20.0147 20.2436 20.6264 19.62 21.3787 19.62C22.131 19.62 22.7427 20.2436 22.7427 21.0098C22.7427 21.7763 22.131 22.3998 21.3787 22.3998Z" fill="#DDA046"/>
<path d="M24.8887 27.9037H17.8892C17.4443 27.9037 17.0837 28.2714 17.0837 28.7244C17.0837 29.1777 17.4443 29.5451 17.8892 29.5451H24.8887C25.3336 29.5451 25.6942 29.1777 25.6942 28.7244C25.6942 28.2714 25.3336 27.9037 24.8887 27.9037Z" fill="#DDA046"/>
</g>
<defs>
<clipPath id="clip0_8_5861">
<rect width="41.242" height="42.0201" fill="white" transform="translate(0.757812)"/>
</clipPath>
</defs>
</svg>
