<svg width="40" height="40" viewBox="0 0 40 40" fill="none" xmlns="http://www.w3.org/2000/svg">
<path d="M17.5893 29.5878C17.5893 29.6369 17.5893 29.6983 17.5621 29.7326C17.3777 29.9704 17.1583 30.1688 16.8704 30.2741C16.6203 30.3654 16.421 30.2539 16.3684 29.9941C16.3473 29.8914 16.3464 29.7835 16.3464 29.6782C16.3456 27.7428 16.3403 23.7747 16.3377 23.7264H14.9096C14.9096 23.7799 14.9079 29.3078 14.9114 30.3522C14.9123 30.6349 14.9421 30.9157 15.0597 31.1782C15.1861 31.4625 15.3959 31.6425 15.7083 31.6943C15.9374 31.7338 16.1612 31.7083 16.3789 31.6337C16.8248 31.4801 17.1741 31.1905 17.4822 30.8429C17.5094 30.8122 17.5384 30.7823 17.5901 30.727V31.5942H19.0217V27.7999C19.0217 26.485 19.0217 23.7141 19.0217 23.7141L17.5893 23.7176V29.5878Z" fill="url(#paint0_linear_12101_182)"/>
<path d="M24.357 24.3419C24.0551 23.6985 23.4205 23.5282 22.8702 23.666C22.5366 23.7503 22.2663 23.9425 22.0442 24.1909C21.9705 24.2743 21.8897 24.4358 21.8897 24.4358C21.8897 24.4358 21.8897 22.0598 21.8897 20.9241H20.4556V31.5927H21.8897V30.9941C21.8897 30.9941 21.9916 31.102 22.0284 31.1415C22.3576 31.4987 22.7569 31.6945 23.2493 31.6989C23.8549 31.705 24.2762 31.4118 24.4676 30.8361C24.5562 30.5684 24.5852 30.2928 24.5861 30.0136C24.5878 28.5224 24.5878 27.0312 24.5852 25.54C24.5852 25.1274 24.5352 24.722 24.357 24.3419ZM23.1089 29.8356C23.1089 29.9154 23.0992 29.9962 23.0826 30.0743C23.0167 30.3868 22.7789 30.5272 22.4418 30.4579C22.2373 30.4157 22.0776 30.2981 21.9407 30.1498C21.9345 30.1428 21.8941 30.0883 21.8941 30.0883V29.9716L21.8906 25.2346C21.8906 25.2346 21.9213 25.1468 21.9889 25.088C22.1574 24.9388 22.3435 24.8449 22.5761 24.8677C22.7745 24.887 22.9325 24.9783 23.0062 25.1617C23.0615 25.3013 23.1054 25.4567 23.1063 25.6059C23.1133 27.0154 23.1106 28.425 23.1089 29.8356Z" fill="url(#paint1_linear_12101_182)"/>
<path d="M19.2002 15.0433C19.5346 15.0433 19.8066 14.7713 19.8066 14.4369V10.1579C19.8066 9.82352 19.5345 9.55151 19.2002 9.55151C18.8658 9.55151 18.5938 9.8236 18.5938 10.1579V14.4369C18.5937 14.7712 18.8658 15.0433 19.2002 15.0433Z" fill="url(#paint2_linear_12101_182)"/>
<path d="M14.9132 20.9248H9.94531V22.4537H11.6191V31.5934H13.2358V22.4502H14.9132V20.9248Z" fill="url(#paint3_linear_12101_182)"/>
<path d="M28.4544 28.7964V29.8084C28.4544 30.1621 28.1682 30.4483 27.8154 30.4483C27.4617 30.4483 27.1755 30.1621 27.1755 29.8084V27.8397H29.9219C29.9219 27.8397 29.9377 26.4661 29.9263 25.8429C29.9219 25.577 29.9017 25.3075 29.8473 25.0477C29.7051 24.3736 29.3426 23.8654 28.6641 23.6425C28.4649 23.5767 28.2507 23.5424 28.041 23.5293C27.3432 23.4845 26.7323 23.6838 26.2548 24.2183C25.8361 24.6861 25.6904 25.2496 25.6896 25.8605C25.6869 27.0287 25.6817 28.1978 25.6931 29.3661C25.6966 29.6636 25.7299 29.9673 25.7975 30.2569C25.9432 30.8792 26.2829 31.3681 26.8824 31.6385C27.3204 31.8368 27.7829 31.8465 28.2498 31.778C29.0029 31.6674 29.5164 31.2637 29.7648 30.5361C29.9517 29.991 29.9298 28.7964 29.9298 28.7964H28.4544ZM27.1755 25.5139C27.1755 25.161 27.4617 24.874 27.8154 24.874C28.1682 24.874 28.4544 25.161 28.4544 25.5139V26.6189H27.1755V25.5139Z" fill="url(#paint4_linear_12101_182)"/>
<path d="M0 0V40H40V0H0ZM22.5339 8.33737H23.9906V14.3779C23.9906 14.4579 23.997 14.5388 24.011 14.6173C24.0552 14.8662 24.2392 14.9834 24.4789 14.9003C24.7711 14.7992 24.9941 14.5969 25.1832 14.3585C25.21 14.3244 25.2051 14.2609 25.2051 14.2109V8.33737H26.6724L26.672 16.2582H25.2043L25.2061 15.4072C25.0438 15.5671 24.9053 15.7164 24.7531 15.8505C24.4833 16.0882 24.1777 16.2654 23.8202 16.3353C23.2714 16.4426 22.8039 16.2692 22.6289 15.7008C22.5706 15.5114 22.5354 15.3074 22.5339 15.1097V8.33737ZM19.2002 8.1391C20.3609 8.1391 21.3018 9.08001 21.3018 10.2407V14.3536C21.3018 15.5142 20.3609 16.4551 19.2002 16.4551C18.0395 16.4551 17.0986 15.5142 17.0986 14.3536V10.2407C17.0985 9.08001 18.0394 8.1391 19.2002 8.1391ZM13.5469 5.53572C13.5469 5.53572 14.2144 8.37082 14.533 9.7138H14.5335C14.8521 8.37082 15.5196 5.53572 15.5196 5.53572H17.1898C17.1898 5.53572 15.9066 9.79148 15.3327 11.6894C15.312 11.758 15.3026 11.8326 15.3026 11.9045L15.3033 16.2565H13.7632L13.7638 11.9045C13.7638 11.8326 13.7543 11.7581 13.7337 11.6894C13.1599 9.79148 11.8767 5.53572 11.8767 5.53572H13.5469ZM31.9117 30.7958C31.9117 32.7426 30.3564 34.333 28.4105 34.3742C22.8046 34.4945 17.196 34.4945 11.5892 34.3742C9.6442 34.333 8.08889 32.7426 8.08889 30.7958V22.0398C8.08889 20.0939 9.6442 18.5035 11.5892 18.4622C17.196 18.342 22.8046 18.342 28.4105 18.4622C30.3564 18.5035 31.9117 20.0939 31.9117 22.0398V30.7958Z" fill="url(#paint5_linear_12101_182)"/>
<defs>
<linearGradient id="paint0_linear_12101_182" x1="16.9654" y1="23.7141" x2="16.9654" y2="31.7127" gradientUnits="userSpaceOnUse">
<stop stop-color="#E32828"/>
<stop offset="1" stop-color="#AE0000"/>
</linearGradient>
<linearGradient id="paint1_linear_12101_182" x1="22.5214" y1="20.9241" x2="22.5214" y2="31.6989" gradientUnits="userSpaceOnUse">
<stop stop-color="#E32828"/>
<stop offset="1" stop-color="#AE0000"/>
</linearGradient>
<linearGradient id="paint2_linear_12101_182" x1="19.2002" y1="9.55151" x2="19.2002" y2="15.0433" gradientUnits="userSpaceOnUse">
<stop stop-color="#E32828"/>
<stop offset="1" stop-color="#AE0000"/>
</linearGradient>
<linearGradient id="paint3_linear_12101_182" x1="12.4292" y1="20.9248" x2="12.4292" y2="31.5934" gradientUnits="userSpaceOnUse">
<stop stop-color="#E32828"/>
<stop offset="1" stop-color="#AE0000"/>
</linearGradient>
<linearGradient id="paint4_linear_12101_182" x1="27.8083" y1="23.5232" x2="27.8083" y2="31.8164" gradientUnits="userSpaceOnUse">
<stop stop-color="#E32828"/>
<stop offset="1" stop-color="#AE0000"/>
</linearGradient>
<linearGradient id="paint5_linear_12101_182" x1="20" y1="0" x2="20" y2="40" gradientUnits="userSpaceOnUse">
<stop stop-color="#E32828"/>
<stop offset="1" stop-color="#AE0000"/>
</linearGradient>
</defs>
</svg>
