<svg width="39" height="39" fill="none" xmlns="http://www.w3.org/2000/svg"><g clip-path="url(#a)" fill="#DDA046"><path d="M35.046 3.338H31.43V2.276A2.278 2.278 0 0 0 29.154 0a2.278 2.278 0 0 0-2.275 2.276v1.062H14.135V2.276A2.278 2.278 0 0 0 11.859 0a2.278 2.278 0 0 0-2.276 2.276v1.09a.757.757 0 0 0-.202-.028H6.359A3.797 3.797 0 0 0 2.566 7.13v12.92a.759.759 0 0 0 1.517 0v-8.9H31.43a.759.759 0 0 0 0-1.517H4.083V7.13a2.278 2.278 0 0 1 2.276-2.276H9.38a.76.76 0 0 0 .202-.028v.976a2.278 2.278 0 0 0 2.276 2.276 2.278 2.278 0 0 0 2.276-2.276v-.948h12.744v.948a2.278 2.278 0 0 0 2.275 2.276 2.278 2.278 0 0 0 2.276-2.276v-.948h3.616a2.278 2.278 0 0 1 2.276 2.276v28.825c0 .753-.613 1.366-1.366 1.366a1.367 1.367 0 0 1-1.366-1.366v-1.963a.759.759 0 0 0-.759-.758h-8.824a.759.759 0 0 0 0 1.517h8.066v1.204c0 .494.125.959.344 1.366H2.883a1.367 1.367 0 0 1-1.366-1.366v-1.204h16.979a.759.759 0 1 0 0-1.517h-7.58a6.207 6.207 0 0 0 2.168-4.713c0-3.43-2.79-6.22-6.22-6.22-3.43 0-6.22 2.79-6.22 6.22 0 1.883.84 3.571 2.166 4.713H.76a.759.759 0 0 0-.759.758v1.963a2.886 2.886 0 0 0 2.883 2.883h33.073a2.886 2.886 0 0 0 2.883-2.883V7.13a3.797 3.797 0 0 0-3.793-3.793ZM12.618 5.803a.76.76 0 0 1-1.518 0V2.276a.76.76 0 0 1 1.518 0v3.527Zm17.295 0a.76.76 0 0 1-1.517 0V2.276a.76.76 0 0 1 1.517 0v3.527ZM2.16 28.523a4.708 4.708 0 0 1 4.703-4.704 4.708 4.708 0 0 1 4.704 4.703 4.708 4.708 0 0 1-4.704 4.703 4.708 4.708 0 0 1-4.703-4.703Z"/><path d="M35.524 9.856a.764.764 0 0 0-.536-.222c-.2 0-.395.081-.536.222a.764.764 0 0 0-.222.536c0 .2.08.396.222.537a.764.764 0 0 0 .536.222c.2 0 .395-.081.536-.222a.764.764 0 0 0 .223-.537.76.76 0 0 0-.223-.536Zm-12.87 23.601a.763.763 0 0 0-1.072 0 .766.766 0 0 0-.222.536c0 .2.08.395.222.537a.764.764 0 0 0 1.072 0 .768.768 0 0 0 .223-.537.76.76 0 0 0-.223-.536ZM17.162 23.06a2.886 2.886 0 0 0-2.882 2.883 2.886 2.886 0 0 0 2.882 2.883 2.886 2.886 0 0 0 2.883-2.883 2.886 2.886 0 0 0-2.883-2.883Zm0 4.248a1.367 1.367 0 0 1-1.365-1.365 1.366 1.366 0 0 1 2.731 0c0 .753-.613 1.365-1.366 1.365Zm7.08-4.248a2.886 2.886 0 0 0-2.882 2.883 2.886 2.886 0 0 0 2.882 2.883 2.886 2.886 0 0 0 2.883-2.883 2.886 2.886 0 0 0-2.883-2.883Zm0 4.248a1.367 1.367 0 0 1-1.365-1.365 1.366 1.366 0 0 1 2.731 0c0 .753-.613 1.365-1.366 1.365Zm7.08-4.248a2.886 2.886 0 0 0-2.883 2.883 2.886 2.886 0 0 0 2.883 2.883 2.886 2.886 0 0 0 2.883-2.883 2.886 2.886 0 0 0-2.883-2.883Zm0 4.248a1.367 1.367 0 0 1-1.365-1.365 1.366 1.366 0 0 1 2.73 0c0 .753-.612 1.365-1.365 1.365Zm-21.24-12.137A2.886 2.886 0 0 0 7.2 18.054a2.886 2.886 0 0 0 2.882 2.883 2.886 2.886 0 0 0 2.883-2.883 2.886 2.886 0 0 0-2.883-2.883Zm0 4.248a1.367 1.367 0 0 1-1.365-1.365 1.366 1.366 0 0 1 2.731 0c0 .753-.613 1.365-1.366 1.365Zm14.16-4.248a2.886 2.886 0 0 0-2.882 2.883 2.886 2.886 0 0 0 2.882 2.883 2.886 2.886 0 0 0 2.883-2.883 2.886 2.886 0 0 0-2.883-2.883Zm0 4.248a1.367 1.367 0 0 1-1.365-1.365 1.366 1.366 0 0 1 2.731 0c0 .753-.613 1.365-1.366 1.365Zm7.08-4.248a2.886 2.886 0 0 0-2.883 2.883 2.886 2.886 0 0 0 2.883 2.883 2.886 2.886 0 0 0 2.883-2.883 2.886 2.886 0 0 0-2.883-2.883Zm0 4.248a1.367 1.367 0 0 1-1.365-1.365 1.366 1.366 0 0 1 2.73 0c0 .753-.612 1.365-1.365 1.365Zm-14.16-4.248a2.886 2.886 0 0 0-2.882 2.883 2.886 2.886 0 0 0 2.882 2.883 2.886 2.886 0 0 0 2.883-2.883 2.886 2.886 0 0 0-2.883-2.883Zm0 4.248a1.367 1.367 0 0 1-1.365-1.365 1.366 1.366 0 0 1 2.731 0c0 .753-.613 1.365-1.366 1.365Zm-7.596 7.255a.759.759 0 0 0-1.073 0l-2.47 2.47-.844-.844a.759.759 0 0 0-1.073 1.072l1.38 1.381a.759.759 0 0 0 1.073 0l3.007-3.007a.759.759 0 0 0 0-1.072Z"/></g><defs><clipPath id="a"><path fill="#fff" d="M0 0h38.839v38.839H0z"/></clipPath></defs></svg>