<svg width="43" height="43" fill="none" xmlns="http://www.w3.org/2000/svg"><g clip-path="url(#a)" fill="#DDA046"><path d="M42.55 26.566a.722.722 0 0 0-.79.172l-3.06 3.217v-19.11h.004l2.92-3.153a.717.717 0 0 0-.04-1.013L40.533 5.7l1.46-1.577a.717.717 0 0 0-.04-1.012L38.799.19a.716.716 0 0 0-1.012.039l-5.095 5.502H7.883A3.587 3.587 0 0 0 4.3 2.148h-.717A3.587 3.587 0 0 0 0 5.732v30.816c0 .396.32.717.717.717h10.849l-1.506 1.807a.717.717 0 0 0 .093 1.01l3.304 2.75a.717.717 0 0 0 1.01-.091l3.668-4.407c.254-.306.417-.676.47-1.069h13.133l-4.308 4.523a.717.717 0 0 0 .52 1.21h14.333c.396 0 .717-.32.717-.716v-15.05a.717.717 0 0 0-.45-.666Zm-2.464-19.33-1.386 1.5V7.68l.86-.932.526.488Zm-2.82-.127v.01l-6.06 6.55-2.105-1.947 7.301-7.89 2.105 1.947-1.232 1.33h-.008Zm-7.437 7.238-1.648.481.352-1.681 1.296 1.2Zm8.52-12.62 2.105 1.947-.974 1.054-2.104-1.948.974-1.052ZM3.584 3.583H4.3a2.15 2.15 0 0 1 2.15 2.15v27.252a3.547 3.547 0 0 0-2.15-.736h-.717a3.546 3.546 0 0 0-2.15.736V5.732a2.15 2.15 0 0 1 2.15-2.15Zm0 30.1H4.3a2.15 2.15 0 0 1 2.15 2.15H1.433a2.15 2.15 0 0 1 2.15-2.15Zm13.451 3.735-.458.55-2.203-1.834.458-.55a.716.716 0 0 1 1.009-.093l1.102.915a.717.717 0 0 1 .093 1.01v.002Zm-3.21 3.856-2.203-1.834 1.835-2.204 2.203 1.834-1.834 2.204Zm4.48-5.441a2.127 2.127 0 0 0-.445-.526l-1.102-.917a2.15 2.15 0 0 0-3.028.277l-.972 1.166H7.883V7.165h23.483l-3.804 4.11a.694.694 0 0 0-.15.27c-.006.022-.017.043-.023.066l-.855 4.091a.717.717 0 0 0 .902.834l4.014-1.17c.018-.005.034-.016.052-.022l.056-.025a.709.709 0 0 0 .215-.152l5.494-5.937v22.23l-4.164 4.372H18.304Zm23.263 5.733H29.622l11.945-12.542v12.542Z"/><path d="M33.738 39.69c.11.267.372.442.662.442h5.017a.716.716 0 0 0 .716-.717v-5.017a.717.717 0 0 0-1.223-.506l-5.017 5.016a.717.717 0 0 0-.155.782Zm4.962-3.562v2.57h-2.57l2.57-2.57Zm-7.167-8.896h-5.016v-7.883a.725.725 0 0 0-.211-.508l-4.3-4.3a.716.716 0 0 0-1.014 0l-4.3 4.3a.726.726 0 0 0-.209.508v7.883h-5.016a.717.717 0 1 0 0 1.433h20.066a.717.717 0 1 0 0-1.433ZM21.5 16.062l2.57 2.57h-5.14l2.57-2.57Zm-3.583 4.003h7.166v7.167h-7.166v-7.167Zm2.866-8.6h1.434V12.9h-1.434v-1.434Zm0 18.634h1.434v1.433h-1.434v-1.433Z"/></g><defs><clipPath id="a"><path fill="#fff" d="M0 0h43v43H0z"/></clipPath></defs></svg>