<svg width="26" height="26" fill="none" xmlns="http://www.w3.org/2000/svg"><g clip-path="url(#a)" fill="#000"><path d="M12.878 8.267a.486.486 0 1 0 0 .973.486.486 0 0 0 0-.973Z"/><path d="M.908 25.396h23.94a.487.487 0 0 0 .487-.487v-1.946a.487.487 0 0 0-.486-.487h-.487v-1.46a.487.487 0 0 0-.487-.486h-.486v-1.46a.487.487 0 0 0-.487-.487h-.487v-5.45h.487a.487.487 0 0 0 .487-.486v-1.46h1.46a.487.487 0 0 0 .486-.487V8.747a.485.485 0 0 0-.218-.399l-.003-.002L13.144.56a.487.487 0 0 0-.531 0L.643 8.346a.49.49 0 0 0-.222.408V10.7c0 .27.218.487.487.487h1.46v1.46c0 .269.217.486.486.486h.487v5.45h-.487a.487.487 0 0 0-.487.487v1.46h-.486a.487.487 0 0 0-.487.486v1.46H.908a.487.487 0 0 0-.487.487v1.946c0 .269.218.487.487.487Zm16.641-2.92v-.973h5.84v.973h-5.84Zm-8.37 0v-.973h7.397v.973H9.18ZM7.72 18.583h-.487v-5.45h.487a.487.487 0 0 0 .487-.486v-1.46h9.342v1.46c0 .269.218.486.487.486h.487v5.45h-.487a.487.487 0 0 0-.487.487v1.46h-.973v-7.883a.487.487 0 0 0-.486-.487H9.666a.487.487 0 0 0-.486.487v7.883h-.973v-1.46a.487.487 0 0 0-.487-.487Zm5.645 1.947v-7.397h2.238v7.397h-2.238Zm-3.212 0v-7.397h2.238v7.397h-2.238Zm8.37 0v-.973h3.892v.973h-3.892Zm2.92-1.947h-1.947v-5.45h1.946v5.45Zm.972-6.423h-3.892v-.973h3.892v.973ZM1.395 9.24h9.537a.487.487 0 0 0 0-.973H2.548l10.33-6.718 10.33 6.718h-8.384a.487.487 0 0 0 0 .974h9.538v.973H1.394V9.24Zm5.838 1.947v.973H3.341v-.973h3.892Zm-.973 1.946v5.45H4.314v-5.45H6.26Zm-2.92 6.424h3.893v.973H3.341v-.973Zm-.973 1.946h5.84v.973h-5.84v-.973Zm-.973 1.946h22.968v.974H1.394v-.974Z"/><path d="M12.878 7.294a1.949 1.949 0 0 0 1.944-2.048 1.944 1.944 0 0 0-1.944-1.845 1.949 1.949 0 0 0-1.946 1.947c0 1.073.873 1.946 1.946 1.946Zm0-2.92c.519 0 .946.406.972.923v.005l.001.046a.974.974 0 0 1-1.946 0c0-.537.436-.973.973-.973Z"/></g><defs><clipPath id="a"><path fill="#fff" transform="translate(.42 .482)" d="M0 0h24.914v24.914H0z"/></clipPath></defs></svg>