<svg width="28" height="28" fill="none" xmlns="http://www.w3.org/2000/svg"><g clip-path="url(#a)" fill="#DDA046"><path d="M5.714 7.687a5.93 5.93 0 0 1 3.099 1.4 8.58 8.58 0 0 0 5.635 2.115 8.574 8.574 0 0 0 6.744-3.293c.522.47.999.99 1.418 1.553a.523.523 0 1 0 .84-.627 11.792 11.792 0 0 0-1.894-1.996 8.591 8.591 0 0 0-1.253-2.383 8.438 8.438 0 0 0-4.464-3.092 8.654 8.654 0 0 0-5.334.182.524.524 0 1 0 .36.984 7.598 7.598 0 0 1 4.683-.16 7.399 7.399 0 0 1 4.3 3.282 11.565 11.565 0 0 0-5.326-1.52L13.328 3.08a.524.524 0 1 0-.693.786l.345.304a11.66 11.66 0 0 0-2.343.458.524.524 0 0 0 .306 1.002 10.671 10.671 0 0 1 3.114-.461c.921 0 1.82.115 2.69.34l-1.26 1.034a.524.524 0 1 0 .665.81l1.779-1.459a10.638 10.638 0 0 1 2.449 1.353A7.515 7.515 0 0 1 9.504 8.299a6.922 6.922 0 0 0-3.018-1.534c.23-.574.53-1.115.894-1.614a.524.524 0 0 0-.847-.617A8.528 8.528 0 0 0 5.287 7.01a.524.524 0 0 0 .427.676Zm5.012 14.702a8.58 8.58 0 0 0-.813-5.624 8.57 8.57 0 0 0-6.396-4.51c.146-.686.358-1.358.635-2.003a.524.524 0 1 0-.963-.413 11.797 11.797 0 0 0-.781 2.638A8.591 8.591 0 0 0 .97 14.754a8.466 8.466 0 0 0-.083 6.539 8.53 8.53 0 0 0 4.604 4.713 8.451 8.451 0 0 0 5.2.475.524.524 0 0 0 .372-.708 5.929 5.929 0 0 1-.337-3.384Zm-4.824 2.653a7.49 7.49 0 0 1-4.041-4.138 7.426 7.426 0 0 1 .373-6.353 11.513 11.513 0 0 0 1.347 5.372l-.314 1.558a.524.524 0 1 0 1.027.207l.09-.45c.461.652.986 1.255 1.569 1.799a.522.522 0 0 0 .74-.025.524.524 0 0 0-.025-.74 10.674 10.674 0 0 1-1.957-2.467c-.46-.798-.81-1.634-1.05-2.5l1.525.574a.523.523 0 1 0 .37-.98l-2.154-.812a10.64 10.64 0 0 1-.053-2.797 7.52 7.52 0 0 1 5.635 3.96 7.529 7.529 0 0 1 .714 4.935 6.921 6.921 0 0 0 .18 3.38 7.409 7.409 0 0 1-3.976-.523Zm21.138-8.236a8.465 8.465 0 0 0-2.19-4.741.525.525 0 0 0-.799.032 5.927 5.927 0 0 1-2.762 1.984 8.58 8.58 0 0 0-4.464 3.516 8.57 8.57 0 0 0-.707 7.794c-.667.217-1.356.37-2.052.452a.524.524 0 1 0 .123 1.04 11.792 11.792 0 0 0 2.677-.643 8.51 8.51 0 0 0 2.69.107 8.466 8.466 0 0 0 5.703-3.197 8.53 8.53 0 0 0 1.78-6.344Zm-2.604 5.695a7.426 7.426 0 0 1-5.689 2.853 11.564 11.564 0 0 0 3.98-3.852l1.506-.507a.524.524 0 1 0-.334-.993l-.436.146c.335-.725.594-1.48.774-2.257a.524.524 0 0 0-1.02-.237 10.673 10.673 0 0 1-1.158 2.928c-.46.798-1.01 1.519-1.64 2.159l-.265-1.608a.524.524 0 1 0-1.034.17l.374 2.271a10.646 10.646 0 0 1-2.396 1.444 7.512 7.512 0 0 1 4.528-9.945 6.92 6.92 0 0 0 2.838-1.846 7.407 7.407 0 0 1 1.535 3.705 7.49 7.49 0 0 1-1.563 5.57Z"/><path d="M8.612 3.687a.523.523 0 1 0 0-1.047.523.523 0 0 0 0 1.047Z"/></g><defs><clipPath id="a"><path fill="#fff" transform="translate(.271 .542)" d="M0 0h26.831v26.831H0z"/></clipPath></defs></svg>