<svg width="37" height="37" fill="none" xmlns="http://www.w3.org/2000/svg"><path d="M36.321.815A1.084 1.084 0 0 0 35.44.09c-.242-.029-5.92-.724-8.502 2.26-2.16 2.504-1.294 6.563-.89 7.997-.505.768-1.744 2.543-3.758 4.974.874-1.55 1.606-3.53 1.145-5.438-.937-3.863-6.278-5.505-6.52-5.572a1.08 1.08 0 0 0-1.09.285c-.167.174-4.064 4.346-3.14 8.178.925 3.832 6.278 5.505 6.52 5.572.1.03.206.046.311.046.035.003.07.003.106 0a105.391 105.391 0 0 1-5.959 6.037c.83-1.415 1.478-3.159 1.164-4.887-.71-3.912-5.954-5.858-6.179-5.94a1.084 1.084 0 0 0-1.11.241c-.177.167-4.31 4.105-3.605 7.985.657 3.622 5.196 5.553 6.036 5.89A113.074 113.074 0 0 1 .76 34.752a1.072 1.072 0 0 0 .613 1.956c.219 0 .432-.067.611-.191a114.532 114.532 0 0 0 9.499-7.282c.01.043.022.086.039.128.082.222 2.04 5.432 5.978 6.135.302.055.608.082.915.082 3.586 0 6.966-3.5 7.12-3.66a1.071 1.071 0 0 0 .242-1.108c-.082-.223-2.043-5.433-5.98-6.138-1.372-.242-2.751.104-3.97.666a101.653 101.653 0 0 0 4.96-5.022c.6 1.207 2.747 5.012 6.154 5.42.202.024.405.037.608.037 3.704 0 7.058-3.9 7.205-4.073a1.071 1.071 0 0 0 .167-1.12c-.095-.216-2.355-5.313-6.326-5.781-1.316-.157-2.606.22-3.745.797a60.995 60.995 0 0 0 2.933-3.95c.273.016.616.03 1.007.03 1.932 0 5.07-.344 6.804-2.35 2.608-3.017.804-8.292.727-8.514Zm-26.1 24.647c-1.435-.66-3.818-2.125-4.166-4.04-.348-1.914 1.381-4.346 2.487-5.553 1.432.654 3.825 2.118 4.163 4.042.338 1.924-1.379 4.339-2.485 5.55Zm9.186 1.326c1.932.345 3.405 2.711 4.069 4.133-1.11 1-3.202 2.514-5.051 2.514-.182 0-.363-.015-.541-.046-1.932-.346-3.405-2.714-4.069-4.134 1.208-1.1 3.622-2.82 5.592-2.467Zm-.227-10.716c-1.468-.572-3.93-1.893-4.399-3.796-.468-1.902 1.133-4.413 2.173-5.686 1.449.572 3.924 1.895 4.383 3.8.458 1.906-1.126 4.41-2.157 5.682Zm9.147.862c1.946.241 3.559 2.508 4.302 3.89-1.154 1.168-3.455 3.023-5.437 2.786-1.944-.241-3.557-2.511-4.303-3.892 1.157-1.169 3.458-3.023 5.438-2.784ZM33.95 7.93c-1.302 1.495-4.257 1.676-5.889 1.589-.389-1.521-.75-4.286.524-5.761 1.275-1.475 4.247-1.676 5.889-1.577.391 1.51.75 4.274-.524 5.75Z" fill="#DDA046"/></svg>