<svg width="42" height="42" fill="none" xmlns="http://www.w3.org/2000/svg"><g clip-path="url(#a)" fill="#DDA046"><path d="M39.379 24.872H33.16V14.509h6.218a.69.69 0 0 0 .69-.69v-3.407L41.445.79a.69.69 0 0 0-.684-.79H21.417a.691.691 0 0 0-.684.789l1.374 9.622v3.406c0 .382.31.691.691.691h6.218v10.363h-.69a2.073 2.073 0 1 0 0 4.145h.69v1.382H24.18l.645-9.672h.737a.69.69 0 0 0 .69-.691v-2.764a.69.69 0 0 0-.69-.69h-4.888a4.846 4.846 0 0 0-2.447-3.54 4.836 4.836 0 1 0-9.202-2.637 6.897 6.897 0 0 0-7.6 6.116l-.006.06H.691a.69.69 0 0 0-.691.692v2.763c0 .381.31.69.69.69h.737l1.336 20.081a.69.69 0 0 0 .691.645h37.307a.69.69 0 0 0 .69-.69V26.944a2.073 2.073 0 0 0-2.072-2.072ZM22.213 1.382h2.658v4.146h1.382V1.383h1.381v1.381h1.382V1.383h4.145v2.072h1.382V1.383h1.382v4.145h1.381V1.383h2.658l-1.184 8.29H23.397l-1.184-8.29Zm1.276 11.745v-2.072h15.199v2.072H23.489Zm8.29 1.382v10.363h-1.381V14.509h1.381Zm-6.908 3.454v1.382H14.508v-1.382h10.363ZM8.96 11.79c.19.024.378.057.565.1h.022c.81.19 1.568.561 2.216 1.084l.869-1.074a6.94 6.94 0 0 0-2.234-1.198 3.445 3.445 0 1 1 6.287 2.28.69.69 0 0 0 .345 1.036 3.454 3.454 0 0 1 2.234 2.565h-5.448a.69.69 0 0 0-.69.69v6.218a.69.69 0 1 1-1.382 0v-1.382a2.073 2.073 0 1 0-4.146 0v4.836a.69.69 0 0 1-1.381 0v-9.672a.69.69 0 0 0-.691-.69H2.81a5.514 5.514 0 0 1 6.15-4.793Zm-7.58 7.556v-1.382h3.455v1.382H1.382Zm17.963 13.126v7.6H4.101L2.81 20.727h2.025v6.217a2.073 2.073 0 1 0 4.145 0v-4.836a.69.69 0 0 1 1.382 0v1.382a2.073 2.073 0 1 0 4.145 0v-2.763h8.934l-.644 9.672h-1.381a2.073 2.073 0 0 0-2.073 2.072Zm20.726 7.6h-2.073v-3.455h-1.382v3.455h-2.072v-3.455H33.16v3.455h-2.07v-3.455h-1.382v3.455h-2.073v-3.455h-1.381v3.455H24.18v-3.455h-1.382v3.455h-2.072v-5.527H40.07v5.527Zm0-6.909H20.726v-.69c0-.382.31-.692.69-.692h15.2a2.073 2.073 0 1 0 0-4.145h-8.29a.69.69 0 0 1 0-1.381h11.053a.69.69 0 0 1 .69.69v6.218ZM30.398 30.4v-1.382h1.381V30.4h-1.381Zm2.763 0v-1.382h3.454a.69.69 0 1 1 0 1.382h-3.454ZM2.763 6.909V5.527H1.382v1.382H0V8.29h1.382v1.382h1.381V8.29h1.382V6.91H2.763Z"/><path d="M39.379 19.344v-1.382h-1.382v1.382h-1.382v1.382h1.382v1.382h1.382v-1.382h1.382v-1.382h-1.382ZM13.126 1.382V0h-1.381v1.382h-1.382v1.382h1.382v1.381h1.381V2.764h1.382V1.382h-1.382Zm13.127 5.527H24.87V8.29h1.382V6.91Z"/></g><defs><clipPath id="a"><path fill="#fff" d="M0 0h41.452v41.452H0z"/></clipPath></defs></svg>