<svg width="42" height="43" fill="none" xmlns="http://www.w3.org/2000/svg"><g clip-path="url(#a)" fill="#DDA046"><path d="M4.463 21.01c0 9.503 7.589 17.235 16.916 17.235s16.915-7.732 16.915-17.235c0-9.504-7.588-17.235-16.915-17.235-9.327 0-16.916 7.732-16.916 17.235Zm32.22 0c0 8.598-6.865 15.593-15.304 15.593-8.44 0-15.305-6.995-15.305-15.593 0-8.599 6.866-15.594 15.305-15.594s15.304 6.995 15.304 15.594Z"/><path d="M37.31 7.67C34.328 3.975 30.168 1.407 25.597.44a.807.807 0 0 0-.953.636.82.82 0 0 0 .625.97c8.761 1.857 15.12 9.832 15.12 18.964 0 10.68-8.528 19.368-19.01 19.368-10.483 0-19.01-8.688-19.01-19.368 0-9.38 6.564-17.395 15.608-19.06a.82.82 0 0 0 .65-.953.807.807 0 0 0-.937-.662C12.996 1.2 8.707 3.732 5.613 7.466 2.483 11.246.758 16.056.758 21.01c0 5.612 2.145 10.888 6.04 14.856 3.894 3.969 9.073 6.154 14.58 6.154 5.509 0 10.687-2.186 14.582-6.154C39.855 31.898 42 26.622 42 21.01c0-4.858-1.666-9.596-4.69-13.34Z"/><path d="M21.477 1.641h.063a.813.813 0 0 0 .805-.813.814.814 0 0 0-.798-.828h-.064a.813.813 0 0 0-.805.814.814.814 0 0 0 .799.827Zm-.893 6.21c0 .216.086.427.236.58.15.153.357.241.57.241a.805.805 0 0 0 .569-.24.831.831 0 0 0 0-1.16.802.802 0 0 0-.57-.241.801.801 0 0 0-.57.24.834.834 0 0 0-.235.58Zm.785 25.496a.801.801 0 0 0-.57.241.831.831 0 0 0 0 1.16.8.8 0 0 0 .57.24.802.802 0 0 0 .569-.24.834.834 0 0 0 0-1.16.804.804 0 0 0-.57-.24Zm12.924-11.506c.212 0 .42-.087.57-.24a.833.833 0 0 0 0-1.16.802.802 0 0 0-.57-.24.803.803 0 0 0-.569.24.834.834 0 0 0 0 1.16c.15.153.358.24.57.24ZM8.464 20.178a.802.802 0 0 0-.57.24.83.83 0 0 0 0 1.161c.15.153.357.24.57.24.212 0 .42-.087.57-.24a.835.835 0 0 0 0-1.16.801.801 0 0 0-.57-.24Zm6.466-11.39a.804.804 0 0 0-.569.24.835.835 0 0 0 0 1.16c.15.153.358.241.57.241.211 0 .42-.088.569-.24a.835.835 0 0 0 0-1.16.804.804 0 0 0-.57-.241ZM27.827 31.59a.804.804 0 0 0-.57.24.835.835 0 0 0 0 1.161c.15.153.358.24.57.24.212 0 .42-.087.57-.24a.835.835 0 0 0 0-1.16.804.804 0 0 0-.57-.24Zm4.742-16.33c.212 0 .42-.087.57-.24a.835.835 0 0 0 0-1.16.803.803 0 0 0-.57-.24.803.803 0 0 0-.57.24.835.835 0 0 0 0 1.16c.15.153.358.24.57.24Zm-22.38 11.499a.804.804 0 0 0-.57.24.834.834 0 0 0 0 1.16c.15.153.358.241.57.241.212 0 .42-.088.57-.24a.835.835 0 0 0 0-1.16.803.803 0 0 0-.57-.241ZM10.2 13.6a.803.803 0 0 0-.57.241.834.834 0 0 0 0 1.16c.15.153.357.241.57.241a.8.8 0 0 0 .569-.24.832.832 0 0 0 0-1.16.801.801 0 0 0-.57-.241Zm22.358 14.82c.212 0 .42-.089.57-.241a.835.835 0 0 0 0-1.16.804.804 0 0 0-.57-.241.803.803 0 0 0-.57.24.832.832 0 0 0 0 1.16c.15.153.358.241.57.241Zm-4.713-17.98c.212 0 .42-.087.57-.24a.834.834 0 0 0 0-1.161.804.804 0 0 0-.57-.24.804.804 0 0 0-.569.24.835.835 0 0 0 0 1.161c.15.153.358.24.57.24ZM14.912 31.58a.8.8 0 0 0-.57.24.833.833 0 0 0 0 1.16c.15.153.358.241.57.241.212 0 .42-.088.57-.24a.835.835 0 0 0 0-1.16.8.8 0 0 0-.57-.241ZM28.01 13.103l-5.17 5.268a2.913 2.913 0 0 0-2.916-.004l-2.471-2.518a.796.796 0 0 0-1.14 0 .832.832 0 0 0 0 1.16l2.472 2.519a3.057 3.057 0 0 0-.381 1.482c0 1.671 1.334 3.031 2.975 3.031 1.64 0 2.975-1.36 2.975-3.031 0-.536-.138-1.039-.378-1.476l5.173-5.27a.832.832 0 0 0 0-1.16.796.796 0 0 0-1.139 0ZM21.379 22.4c-.753 0-1.364-.624-1.364-1.39 0-.766.611-1.39 1.364-1.39.752 0 1.364.624 1.364 1.39 0 .766-.612 1.39-1.364 1.39Zm3.51 5.504h-7a.813.813 0 0 0-.805.82c0 .454.36.821.805.821h7a.813.813 0 0 0 .805-.82.812.812 0 0 0-.805-.821Z"/></g><defs><clipPath id="a"><path fill="#fff" transform="translate(.758)" d="M0 0h41.242v42.02H0z"/></clipPath></defs></svg>