<svg width="26" height="26" fill="none" xmlns="http://www.w3.org/2000/svg"><g clip-path="url(#a)" fill="#DDA046"><path d="M16.083 12.491a5.515 5.515 0 0 0-.81-9.724.501.501 0 1 0-.39.925c.186.078.412.196.563.29.01.01 2.18 1.178 2.18 3.862 0 2.512-2.063 4.514-4.514 4.514a4.52 4.52 0 0 1-4.514-4.514c0-1.701.998-3.398 2.742-4.152l.005-.002a.502.502 0 0 0-.398-.921l-.005.002a5.544 5.544 0 0 0-3.1 3.436 5.524 5.524 0 0 0 5.27 7.154 5.496 5.496 0 0 0 2.971-.87Z"/><path d="M13.162 8.31a.502.502 0 0 1 0 1.003c-.214 0-.445-.135-.651-.38a.502.502 0 1 0-.768.646c.268.32.584.541.918.653v.586a.502.502 0 0 0 1.003 0v-.588a1.507 1.507 0 0 0 1.003-1.418c0-.83-.675-1.505-1.505-1.505a.502.502 0 0 1 0-1.003c.178 0 .366.09.543.262a.502.502 0 1 0 .697-.721 1.937 1.937 0 0 0-.738-.462V4.8a.502.502 0 0 0-1.003 0v.588a1.507 1.507 0 0 0-1.003 1.418c0 .83.675 1.505 1.504 1.505Z"/><path d="M25.45 15.97h-3.009c-2.562 0-5.035 1.018-6.881 2.783a9.732 9.732 0 0 0-1.947 2.598v-6c3.916-.26 7.023-3.527 7.023-7.507 0-4.149-3.376-7.524-7.524-7.524-4.149 0-7.524 3.375-7.524 7.524 0 3.98 3.107 7.247 7.022 7.506v6.002a9.671 9.671 0 0 0-1.123-1.71 10.112 10.112 0 0 0-5.212-3.348 9.776 9.776 0 0 0-2.492-.325H.773c-.28 0-.502.23-.502.502a9.532 9.532 0 0 0 9.53 9.53h6.621a9.5 9.5 0 0 0 6.74-2.791 9.47 9.47 0 0 0 2.79-6.739v-.008a.502.502 0 0 0-.501-.494Zm-1.534 1.003-3.798 2.779.405-2.565a8.763 8.763 0 0 1 1.918-.214h1.475Zm-7.663 2.505a9.1 9.1 0 0 1 3.205-1.982l-.488 3.096-5.29 3.87c.243-1.868 1.135-3.608 2.573-4.984ZM6.591 7.844a6.528 6.528 0 0 1 6.52-6.52 6.528 6.528 0 0 1 6.521 6.52 6.528 6.528 0 0 1-6.52 6.52 6.528 6.528 0 0 1-6.52-6.52Zm5.952 16.618-5.306-3.883-.475-3.086c3.139 1.115 5.374 3.823 5.781 6.969ZM5.7 17.186l.393 2.556-3.785-2.77h1.475a8.76 8.76 0 0 1 1.917.214Zm-4.362.32 6.735 4.928-3.265.95a8.53 8.53 0 0 1-3.47-5.878Zm4.632 6.585 3.125-.909 2.482 1.816H9.801a8.489 8.489 0 0 1-3.831-.907Zm8.677.907 2.44-1.785 3.152.885a8.487 8.487 0 0 1-3.817.9h-1.775Zm7.805-2.498a8.645 8.645 0 0 1-1.04.885l-3.296-.925 6.771-4.955a8.466 8.466 0 0 1-2.435 4.995Z"/><path d="M13.111 3.329a.501.501 0 1 0 0-1.002.501.501 0 0 0 0 1.002Z"/></g><defs><clipPath id="a"><path fill="#fff" transform="translate(.271 .32)" d="M0 0h25.681v25.681H0z"/></clipPath></defs></svg>