<svg width="19" height="19" fill="none" xmlns="http://www.w3.org/2000/svg"><path d="M12.89 18.077h-.224a9.175 9.175 0 0 1-3.38-.957 17.79 17.79 0 0 1-5.893-4.489 15.711 15.711 0 0 1-2.878-4.68A6.374 6.374 0 0 1 .005 5.2 2.59 2.59 0 0 1 .84 3.454c.258-.237.508-.48.754-.723.192-.189.369-.347.548-.52a1.837 1.837 0 0 1 2.654 0c.352.337.7.679 1.048 1.023l.313.305.696.68c.192.165.346.368.451.595a1.715 1.715 0 0 1 0 1.444c-.105.227-.259.43-.45.594l-.317.308c-.276.269-.548.537-.827.802.265.54.6 1.044.995 1.5a12.51 12.51 0 0 0 3.078 2.732c.136.081.29.158.458.237l.154.073c.377-.375.76-.745 1.143-1.115.168-.182.373-.328.603-.428a1.834 1.834 0 0 1 2.063.428c.694.668 1.384 1.34 2.07 2.016.189.166.34.368.442.593a1.722 1.722 0 0 1 0 1.433 1.764 1.764 0 0 1-.441.593l-.406.39c-.264.25-.517.488-.746.742-.28.304-.625.544-1.011.703-.386.16-.804.234-1.223.218ZM1.602 7.56a14.615 14.615 0 0 0 2.677 4.346A16.643 16.643 0 0 0 9.792 16.1c.91.475 1.91.763 2.938.847.282.033.567-.002.833-.1.265-.098.502-.258.69-.465.258-.282.534-.545.803-.799.13-.124.261-.248.392-.376a.644.644 0 0 0 .265-.514.627.627 0 0 0-.265-.514 256.128 256.128 0 0 0-2.065-2.01.64.64 0 0 0-.51-.246.657.657 0 0 0-.511.245c-.435.421-.87.83-1.274 1.249a.851.851 0 0 1-1.047.17 5.412 5.412 0 0 0-.316-.156 9.448 9.448 0 0 1-.557-.283 13.634 13.634 0 0 1-3.362-2.98 7.797 7.797 0 0 1-1.239-1.94.789.789 0 0 1 .195-.952c.322-.302.638-.61.951-.92l.316-.311c.363-.356.363-.678 0-1.043l-.69-.675-.316-.308a65.56 65.56 0 0 0-1.039-1.01.647.647 0 0 0-.513-.246.664.664 0 0 0-.513.245c-.18.17-.351.34-.526.509-.255.251-.513.502-.777.745a1.464 1.464 0 0 0-.49 1.023 5.359 5.359 0 0 0 .43 2.26l.008.014Zm16.966 1.426h-1.16a7.764 7.764 0 0 0-2.366-5.551 8.19 8.19 0 0 0-5.7-2.305V0a9.366 9.366 0 0 1 6.521 2.635 8.878 8.878 0 0 1 2.706 6.35Zm-3.09 0h-1.16a4.79 4.79 0 0 0-1.459-3.426 5.053 5.053 0 0 0-3.518-1.421v-1.13a6.232 6.232 0 0 1 4.338 1.753 5.907 5.907 0 0 1 1.8 4.224Z" fill="#DDA046"/></svg>