<svg width="18" height="19" fill="none" xmlns="http://www.w3.org/2000/svg"><path d="M13.544.627a23.212 23.212 0 0 0-9.062 0c-1.32.297-2.983 1.965-3.27 3.275a19.539 19.539 0 0 0 0 7.74c.345 1.31 2.008 2.977 3.27 3.275.057 0 .114.06.114.12v3.75c0 .18.23.298.345.12l1.72-1.846s1.377-1.489 1.606-1.727c0 0 .058-.06.115-.06 1.72.06 3.499-.119 5.22-.416 1.319-.298 2.982-1.965 3.27-3.275a19.54 19.54 0 0 0 0-7.74c-.346-1.252-2.009-2.92-3.329-3.217Zm.058 11.194c-.287.595-.631 1.072-1.205 1.37l-.516.178c-.23-.06-.402-.12-.574-.179-1.835-.774-3.556-1.845-4.932-3.394A14.386 14.386 0 0 1 4.482 6.82c-.23-.536-.46-1.012-.631-1.548-.172-.476.115-.953.401-1.31a2.66 2.66 0 0 1 1.033-.774c.287-.179.573-.06.803.179.459.595.918 1.19 1.262 1.846.23.416.172.893-.23 1.19-.114.06-.172.12-.287.239-.057.06-.172.119-.229.238a.598.598 0 0 0-.057.536c.459 1.37 1.319 2.441 2.638 3.036.23.12.402.179.688.179.402-.06.574-.536.86-.774.288-.238.632-.238.976-.06.287.18.574.417.918.655.286.239.573.417.86.655.172.12.23.417.115.715Zm-2.41-4.466c-.114 0-.057 0 0 0-.229 0-.286-.119-.344-.298 0-.119 0-.297-.057-.416a1.138 1.138 0 0 0-.401-.655l-.345-.179c-.172-.06-.286-.06-.458-.06-.172-.06-.23-.178-.23-.357 0-.119.172-.238.287-.238.918.06 1.606.595 1.72 1.727v.238c0 .12-.057.238-.171.238Zm-.573-2.62c-.287-.119-.573-.238-.918-.297-.114 0-.286-.06-.401-.06-.172 0-.287-.12-.23-.298 0-.178.115-.297.287-.238.574.06 1.09.179 1.606.417 1.033.536 1.606 1.429 1.778 2.62v.774c-.057.238-.458.298-.516 0 0-.06-.057-.179-.057-.238 0-.536-.115-1.072-.344-1.548-.345-.536-.746-.894-1.205-1.132Zm3.097 3.573c-.172 0-.286-.179-.286-.357 0-.358-.058-.715-.115-1.072-.23-1.906-1.72-3.454-3.499-3.751-.287-.06-.574-.06-.803-.12-.172 0-.401 0-.459-.238-.057-.178.115-.357.287-.357h.115c.114 0 2.351.06 0 0 2.409.06 4.416 1.727 4.818 4.228.057.416.115.833.115 1.31.114.178 0 .357-.173.357Z" fill="#fff"/></svg>