<svg width="43" height="43" fill="none" xmlns="http://www.w3.org/2000/svg"><path d="M38.8 12.093h-.905L26.05.246a.84.84 0 0 0-1.188 0l-3.035 3.035L9.688.03A.84.84 0 0 0 8.66.623l-3.073 11.47H3.528a3.531 3.531 0 0 0-3.523 3.666.836.836 0 0 0-.004.07V38.8a4.204 4.204 0 0 0 4.2 4.199h30.065l.038-.001h4.497a4.204 4.204 0 0 0 4.199-4.2V16.293c0-2.316-1.884-4.2-4.2-4.2Zm-.75 1.68h.75c1.39 0 2.52 1.13 2.52 2.519v6.73a1.993 1.993 0 0 1-1.99 1.991h-.865v-3.347a4.203 4.203 0 0 0-4.112-4.196l3.697-3.698ZM22.671 4.811l2.784-2.784L36.437 13.01l-4.43 4.43h-1.536l2.01-2.01a.84.84 0 0 0 0-1.187 1.746 1.746 0 0 1 0-2.466.84.84 0 0 0 0-1.188l-4.605-4.604a.84.84 0 0 0-1.188 0c-.68.68-1.786.68-2.466 0a.84.84 0 0 0-1.188 0L11.58 17.44h-1.537l12.63-12.628ZM20.2 14.285a4.014 4.014 0 0 0-3.916 3.155h-2.33l9.748-9.747a3.435 3.435 0 0 0 3.506 0l3.564 3.564a3.436 3.436 0 0 0 0 3.506l-2.677 2.677h-3.98a4.014 4.014 0 0 0-3.915-3.155Zm2.165 3.155h-4.33a2.33 2.33 0 0 1 2.165-1.475 2.33 2.33 0 0 1 2.165 1.475Zm-13.21-1.488 2.224-8.3c.61.01 1.216-.146 1.76-.46.543-.313.98-.76 1.278-1.294l3.78 1.013-5.486 5.485-3.556 3.556Zm.91-14.083 10.39 2.784-.887.887-5.428-1.455a.84.84 0 0 0-1.029.594c-.12.45-.409.826-.812 1.059a1.733 1.733 0 0 1-1.323.174.84.84 0 0 0-1.029.594L7.01 17.468H5.885l4.18-15.6ZM3.528 13.772h1.608l-.99 3.696h-.618a1.85 1.85 0 0 1-1.847-1.848 1.85 1.85 0 0 1 1.847-1.848ZM41.32 38.8c0 1.39-1.13 2.52-2.52 2.52h-1.177a4.177 4.177 0 0 0 .842-2.52v-3.373h.504a4.01 4.01 0 0 0 2.351-.76V38.8Zm0-7.404a2.354 2.354 0 0 1-2.351 2.351H21.332a3.531 3.531 0 0 1-3.527-3.527 3.531 3.531 0 0 1 3.527-3.527h2.546a.84.84 0 0 0 0-1.68h-2.546a5.213 5.213 0 0 0-5.206 5.207 5.213 5.213 0 0 0 5.206 5.207h15.453V38.8a2.523 2.523 0 0 1-2.48 2.52H5.711v-9.458a.84.84 0 0 0-1.68 0v9.451A2.522 2.522 0 0 1 1.68 38.8V18.623c.537.332 1.17.524 1.847.524h30.738a2.522 2.522 0 0 1 2.519 2.52v3.346h-6.072a.84.84 0 0 0 0 1.68h8.617a3.64 3.64 0 0 0 1.99-.59v5.293Z" fill="#DDA046"/></svg>