<svg width="47" height="47" fill="none" xmlns="http://www.w3.org/2000/svg"><g clip-path="url(#a)"><path fill="#fff" d="M5.839 2.256h36.394v40.353H5.839z"/><path d="M20.667 34.766c0 .058 0 .13-.032.17-.216.28-.474.512-.813.636-.293.107-.527-.024-.59-.329a1.862 1.862 0 0 1-.025-.371 2973.53 2973.53 0 0 0-.01-6.993h-1.678c0 .063-.002 6.558.002 7.785 0 .332.036.662.174.97.148.335.395.546.762.607.27.046.532.016.788-.071.524-.18.934-.521 1.296-.93.032-.036.066-.07.127-.136v1.02h1.682v-9.26l-1.683.004v6.898Z" fill="url(#b)"/><path d="M28.62 28.602c-.355-.756-1.101-.956-1.748-.794-.392.099-.71.324-.97.616a1.696 1.696 0 0 0-.182.288v-4.126h-1.685V37.12h1.685v-.703l.163.173c.387.42.856.65 1.435.655.711.007 1.206-.337 1.431-1.014.104-.314.139-.638.14-.966.002-1.752.002-3.504-.002-5.257 0-.484-.058-.96-.268-1.407Zm-1.467 6.455c0 .093-.011.188-.031.28-.078.367-.357.532-.753.45-.24-.049-.428-.187-.589-.361a3.4 3.4 0 0 1-.055-.072v-.137l-.004-5.566s.036-.104.116-.173c.198-.175.416-.285.69-.259.233.023.418.13.505.346.065.164.117.346.118.522.008 1.656.005 3.312.003 4.97Z" fill="url(#c)"/><path d="M22.56 17.676c.393 0 .713-.32.713-.713v-5.028a.713.713 0 0 0-1.425 0v5.028c0 .393.32.713.712.713Z" fill="url(#d)"/><path d="M17.523 24.587h-5.838v1.796h1.967v10.74h1.9V26.378h1.97v-1.792Z" fill="url(#e)"/><path d="M33.434 33.836v1.189a.751.751 0 1 1-1.503 0v-2.313h3.227s.019-1.614.005-2.347a4.964 4.964 0 0 0-.092-.934c-.167-.792-.593-1.389-1.39-1.651a2.941 2.941 0 0 0-.733-.133c-.82-.053-1.538.181-2.099.81-.491.55-.663 1.211-.664 1.93-.003 1.372-.009 2.745.004 4.118.005.35.044.707.123 1.047.171.731.57 1.306 1.275 1.623.515.233 1.058.245 1.607.164.884-.13 1.488-.604 1.78-1.46.22-.64.194-2.043.194-2.043h-1.734Zm-1.503-3.857a.752.752 0 0 1 1.503 0v1.298H31.93V29.98Z" fill="url(#f)"/><path d="M0 0v47h47V0H0Zm26.477 9.796h1.712v7.098c0 .094.007.19.024.281.052.293.268.43.55.333.343-.119.605-.357.827-.637.032-.04.026-.114.026-.173V9.796h1.724v9.307h-1.725l.002-1c-.19.188-.353.364-.532.521-.317.28-.676.488-1.096.57-.645.126-1.194-.078-1.4-.746a2.46 2.46 0 0 1-.112-.694V9.796Zm-3.917-.233a2.47 2.47 0 0 1 2.47 2.47v4.832a2.47 2.47 0 0 1-4.94 0v-4.832a2.47 2.47 0 0 1 2.47-2.47Zm-6.642-3.059s.784 3.332 1.158 4.91c.375-1.578 1.16-4.91 1.16-4.91h1.962s-1.508 5.001-2.182 7.231a.883.883 0 0 0-.035.253V19.1h-1.81l.002-5.113a.887.887 0 0 0-.036-.253l-2.182-7.23h1.963Zm21.578 29.681a4.204 4.204 0 0 1-4.114 4.205 461.82 461.82 0 0 1-19.765 0 4.204 4.204 0 0 1-4.113-4.205V25.897a4.204 4.204 0 0 1 4.113-4.204 460.845 460.845 0 0 1 19.765 0 4.204 4.204 0 0 1 4.114 4.204v10.288Z" fill="url(#g)"/></g><defs><linearGradient id="b" x1="19.934" y1="27.864" x2="19.934" y2="37.263" gradientUnits="userSpaceOnUse"><stop stop-color="#E32828"/><stop offset="1" stop-color="#AE0000"/></linearGradient><linearGradient id="c" x1="26.463" y1="24.586" x2="26.463" y2="37.246" gradientUnits="userSpaceOnUse"><stop stop-color="#E32828"/><stop offset="1" stop-color="#AE0000"/></linearGradient><linearGradient id="d" x1="22.56" y1="11.223" x2="22.56" y2="17.676" gradientUnits="userSpaceOnUse"><stop stop-color="#E32828"/><stop offset="1" stop-color="#AE0000"/></linearGradient><linearGradient id="e" x1="14.604" y1="24.587" x2="14.604" y2="37.122" gradientUnits="userSpaceOnUse"><stop stop-color="#E32828"/><stop offset="1" stop-color="#AE0000"/></linearGradient><linearGradient id="f" x1="32.675" y1="27.64" x2="32.675" y2="37.384" gradientUnits="userSpaceOnUse"><stop stop-color="#E32828"/><stop offset="1" stop-color="#AE0000"/></linearGradient><linearGradient id="g" x1="23.5" y1="0" x2="23.5" y2="47" gradientUnits="userSpaceOnUse"><stop stop-color="#E32828"/><stop offset="1" stop-color="#AE0000"/></linearGradient><clipPath id="a"><rect width="47" height="47" rx="23.5" fill="#fff"/></clipPath></defs></svg>