<svg width="20" height="20" fill="none" xmlns="http://www.w3.org/2000/svg"><path d="M19.528 4.448c-6.785-1.349-6.346-1.279-6.5-1.253l-2.055.41A4.343 4.343 0 0 0 6.875.687a4.343 4.343 0 0 0-4.1 2.923L.7 3.198a.586.586 0 0 0-.7.574v13.75c0 .28.198.52.472.575 6.728 1.337 6.288 1.251 6.332 1.257.142.017-.296.09 6.321-1.234l6.175 1.227c.362.072.7-.205.7-.575V5.023c0-.28-.198-.52-.472-.574ZM6.875 1.858a3.168 3.168 0 0 1 3.164 3.164c0 1.472-2.355 5.209-3.164 6.445-.808-1.235-3.164-4.972-3.164-6.445a3.168 3.168 0 0 1 3.164-3.164ZM1.172 4.486l1.375.274a4.369 4.369 0 0 0-.008.262c0 .978.64 2.554 1.954 4.821a51.17 51.17 0 0 0 1.796 2.86v5.356L1.172 17.04V4.486Zm6.289 8.217c.271-.4 1.028-1.536 1.796-2.86C10.572 7.576 11.21 6 11.21 5.023c0-.09-.003-.18-.009-.268l1.337-.268v12.555L7.46 18.058v-5.355Zm11.367 5.356-5.117-1.018V4.486l5.117 1.017V18.06Z" fill="#DDA046"/><path d="M6.875 6.858a1.838 1.838 0 0 0 1.836-1.836 1.838 1.838 0 0 0-1.836-1.835 1.838 1.838 0 0 0-1.836 1.835c0 1.013.824 1.836 1.836 1.836Zm0-2.5a.665.665 0 1 1-.001 1.33.665.665 0 0 1 .001-1.33Z" fill="#DDA046"/></svg>