<svg width="20" height="20" fill="none" xmlns="http://www.w3.org/2000/svg"><path d="M19.985 7.742a.294.294 0 0 0-.019-.102.511.511 0 0 0-.201-.284l-2.863-1.99V3.232a.512.512 0 0 0-.512-.512h-3.294L10.294.772A.512.512 0 0 0 9.71.77L6.89 2.72H3.61a.512.512 0 0 0-.512.511V5.34L.221 7.329a.511.511 0 0 0-.22.414L0 7.753l.015 11.102a.512.512 0 0 0 .512.511h.001l18.96-.026c.283 0 .512-.23.512-.512l-.015-11.086Zm-3.083-1.128 1.637 1.137-1.637 1.138V6.614Zm-6.901-4.798 1.3.904h-2.61l1.31-.904ZM4.123 3.745h11.755V9.6l-3.947 2.744-1.61-1.248-.006-.005a.512.512 0 0 0-.621.005l-1.621 1.257-3.95-2.73v-5.88ZM3.098 6.586v2.33L1.413 7.75l1.685-1.165ZM1.026 8.729l6.198 4.284-6.186 4.797-.012-9.08Zm1 9.611 7.982-6.19 7.953 6.168-15.935.022Zm10.753-5.337 6.183-4.299.012 9.104-6.195-4.805Z" fill="#DDA046"/><path d="M13.468 5.793H6.533a.512.512 0 0 0 0 1.025h6.935a.512.512 0 0 0 0-1.025Zm0 2.664H6.533a.512.512 0 0 0 0 1.024h6.935a.512.512 0 0 0 0-1.024Z" fill="#DDA046"/></svg>