<svg width="40" height="40" fill="none" xmlns="http://www.w3.org/2000/svg"><path d="M17.59 29.588c0 .049 0 .11-.028.145-.184.237-.404.436-.692.541-.25.091-.449-.02-.502-.28a1.578 1.578 0 0 1-.022-.316c0-1.935-.006-5.903-.008-5.952H14.91c0 .054-.002 5.582.001 6.626.001.283.031.564.149.826.126.284.336.464.648.516.23.04.453.014.67-.06.447-.154.796-.444 1.104-.791l.108-.116v.867h1.432v-7.88l-1.433.004v5.87Z" fill="url(#a)"/><path d="M24.357 24.342c-.302-.643-.936-.814-1.487-.676a1.647 1.647 0 0 0-.826.525c-.073.083-.154.245-.154.245v-3.512h-1.434v10.669h1.434v-.599l.138.148c.33.357.729.553 1.221.557.606.006 1.027-.287 1.219-.863a2.62 2.62 0 0 0 .118-.822c.002-1.492.002-2.983 0-4.474 0-.413-.05-.818-.229-1.198Zm-1.248 5.494c0 .08-.01.16-.026.238-.066.313-.304.453-.641.384a.94.94 0 0 1-.548-.37v-.116l-.003-4.737s.03-.088.098-.147c.168-.15.354-.243.587-.22.198.019.357.11.43.294.055.14.1.295.1.444.007 1.41.005 2.819.003 4.23Z" fill="url(#b)"/><path d="M19.2 15.043a.607.607 0 0 0 .607-.606v-4.28a.607.607 0 0 0-1.213 0v4.28c0 .334.272.606.606.606Z" fill="url(#c)"/><path d="M14.913 20.925H9.945v1.529h1.674v9.14h1.617V22.45h1.677v-1.525Z" fill="url(#d)"/><path d="M28.454 28.796v1.012a.64.64 0 1 1-1.279 0V27.84h2.747s.016-1.374.004-1.997a4.236 4.236 0 0 0-.079-.795c-.142-.674-.504-1.183-1.183-1.405-.2-.066-.413-.1-.623-.114-.698-.044-1.309.155-1.786.69-.419.467-.565 1.03-.565 1.641-.003 1.169-.008 2.338.003 3.506.004.298.037.601.104.89.146.623.486 1.112 1.085 1.383.438.198.9.207 1.368.139.753-.11 1.266-.514 1.515-1.242.187-.545.165-1.74.165-1.74h-1.476Zm-1.279-3.282a.64.64 0 0 1 1.28 0v1.105h-1.28v-1.105Z" fill="url(#e)"/><path d="M0 0v40h40V0H0Zm22.534 8.337h1.457v6.04c0 .08.006.162.02.24.044.25.228.366.468.283.292-.1.515-.303.704-.542.027-.034.022-.097.022-.147V8.337h1.467v7.921h-1.468l.002-.85c-.162.16-.3.308-.453.443-.27.237-.575.414-.933.484-.549.108-1.016-.066-1.191-.634a2.092 2.092 0 0 1-.095-.591V8.337ZM19.2 8.14c1.16 0 2.102.941 2.102 2.102v4.113a2.102 2.102 0 0 1-4.203 0V10.24c0-1.161.94-2.102 2.101-2.102Zm-5.653-2.603s.667 2.835.986 4.178c.32-1.343.987-4.178.987-4.178h1.67s-1.283 4.255-1.857 6.153a.754.754 0 0 0-.03.216v4.351h-1.54v-4.351a.758.758 0 0 0-.03-.216l-1.856-6.153h1.67Zm18.365 25.26a3.578 3.578 0 0 1-3.502 3.578c-5.605.12-11.214.12-16.82 0a3.578 3.578 0 0 1-3.501-3.578V22.04a3.578 3.578 0 0 1 3.5-3.578c5.607-.12 11.216-.12 16.822 0a3.578 3.578 0 0 1 3.5 3.578v8.756Z" fill="url(#f)"/><defs><linearGradient id="a" x1="16.965" y1="23.714" x2="16.965" y2="31.713" gradientUnits="userSpaceOnUse"><stop stop-color="#E32828"/><stop offset="1" stop-color="#AE0000"/></linearGradient><linearGradient id="b" x1="22.521" y1="20.924" x2="22.521" y2="31.699" gradientUnits="userSpaceOnUse"><stop stop-color="#E32828"/><stop offset="1" stop-color="#AE0000"/></linearGradient><linearGradient id="c" x1="19.2" y1="9.552" x2="19.2" y2="15.043" gradientUnits="userSpaceOnUse"><stop stop-color="#E32828"/><stop offset="1" stop-color="#AE0000"/></linearGradient><linearGradient id="d" x1="12.429" y1="20.925" x2="12.429" y2="31.593" gradientUnits="userSpaceOnUse"><stop stop-color="#E32828"/><stop offset="1" stop-color="#AE0000"/></linearGradient><linearGradient id="e" x1="27.808" y1="23.523" x2="27.808" y2="31.816" gradientUnits="userSpaceOnUse"><stop stop-color="#E32828"/><stop offset="1" stop-color="#AE0000"/></linearGradient><linearGradient id="f" x1="20" y1="0" x2="20" y2="40" gradientUnits="userSpaceOnUse"><stop stop-color="#E32828"/><stop offset="1" stop-color="#AE0000"/></linearGradient></defs></svg>